<svg xmlns="http://www.w3.org/2000/svg" viewBox="0 0 227.25 233"><defs><style>.cls-1{fill:#fff;}.cls-1,.cls-2,.cls-3,.cls-4,.cls-5,.cls-6{stroke:#30302d;stroke-width:3px;}.cls-1,.cls-2,.cls-3,.cls-4{stroke-miterlimit:10;}.cls-2{fill:#82baff;}.cls-3,.cls-5,.cls-6{fill:none;}.cls-4{fill:#ffc3b8;}.cls-5,.cls-6{stroke-linecap:round;stroke-linejoin:round;}.cls-6{stroke-dasharray:18.1 18.1;}.cls-7{fill:#30302d;}</style></defs><g id="Layer_2" data-name="Layer 2"><g id="Layer_1-2" data-name="Layer 1"><rect class="cls-1" x="59.03" y="44.83" width="103.76" height="186.67" rx="5.15"/><path class="cls-2" d="M152.48,57.9V209.45a2.75,2.75,0,0,1-2.76,2.76H72.09a2.76,2.76,0,0,1-2.76-2.76V57.9a2.77,2.77,0,0,1,2.76-2.76H86.7L90,61.69h38.52l3.26-6.55h18A2.76,2.76,0,0,1,152.48,57.9Z"/><rect class="cls-3" x="99.24" y="217.31" width="23.35" height="8.73" rx="4.37"/><path class="cls-4" d="M184.69,107.46a41.06,41.06,0,0,0-41.07,41.06c0,22.68,41.07,81.2,41.07,81.2s41.06-58.52,41.06-81.2A41.07,41.07,0,0,0,184.69,107.46Zm0,62a20.94,20.94,0,1,1,20.93-20.94A20.94,20.94,0,0,1,184.69,169.46Z"/><polygon class="cls-1" points="71.97 152.92 17.09 152.92 1.82 231.5 87.24 231.5 71.97 152.92"/><polyline class="cls-3" points="44.53 223.25 11.82 223.25 23.89 161.16"/><path class="cls-3" d="M43.34,125.7h0a15.15,15.15,0,0,1,15.15,15.15v12.07a0,0,0,0,1,0,0H28.19a0,0,0,0,1,0,0V140.84A15.15,15.15,0,0,1,43.34,125.7Z"/><path class="cls-5" d="M31.26,115.51a83.66,83.66,0,0,1-2.64-8.59"/><path class="cls-6" d="M26.14,89c0-.9,0-1.8,0-2.71a84.82,84.82,0,0,1,166-24.5"/><path class="cls-5" d="M194.27,70.61a84.28,84.28,0,0,1,1.19,8.92"/><polygon class="cls-7" points="184.12 71.01 195.18 75.83 206.33 71.2 195 97.44 184.12 71.01"/><path class="cls-7" d="M107.07,174.62V164.54c-5.78-.1-11.77-1.89-15.26-4.38l2.39-6.69a26.55,26.55,0,0,0,14.37,4.29c7.08,0,11.86-4.09,11.86-9.77,0-5.49-3.89-8.88-11.27-11.87-10.17-4-16.45-8.58-16.45-17.25,0-8.28,5.88-14.57,15.06-16.06V92.73H114v9.68a26.59,26.59,0,0,1,13,3.49l-2.5,6.58a24,24,0,0,0-12.56-3.39c-7.68,0-10.57,4.59-10.57,8.58,0,5.18,3.69,7.78,12.36,11.37,10.28,4.19,15.46,9.37,15.46,18.25,0,7.88-5.48,15.26-15.76,17v10.37Z"/></g></g></svg>