<svg xmlns="http://www.w3.org/2000/svg" viewBox="0 0 177.72 233"><defs><style>.cls-1,.cls-6{fill:none;}.cls-1,.cls-2,.cls-3,.cls-5,.cls-6{stroke:#30302d;stroke-width:3px;}.cls-1,.cls-2,.cls-3,.cls-5{stroke-miterlimit:10;}.cls-1{stroke-dasharray:12;}.cls-2{fill:#fff;}.cls-3{fill:#82baff;}.cls-4{fill:#30302d;}.cls-5{fill:#ffc3b8;}.cls-6{stroke-linecap:round;stroke-linejoin:round;}</style></defs><g id="Layer_2" data-name="Layer 2"><g id="Layer_1-2" data-name="Layer 1"><path class="cls-1" d="M1.5,113.83V26.45a25,25,0,0,1,25-24.95H83.36"/><path class="cls-2" d="M154.23,26.45v170.2a14,14,0,0,1-14,14H26.45l-.74,0a13.23,13.23,0,0,1-1.69-.2,14,14,0,0,1-11.53-13.74V26.45a14,14,0,0,1,14-14H140.26a13.94,13.94,0,0,1,13.42,10.12,12.65,12.65,0,0,1,.53,3.1C154.22,26,154.23,26.2,154.23,26.45Z"/><path class="cls-1" d="M176.22,184.1v22.45a25,25,0,0,1-25,24.95H118.8"/><path class="cls-3" d="M165.23,36.35v170.2a14,14,0,0,1-14,14H37.45A14,14,0,0,1,24,210.39a13.23,13.23,0,0,0,1.69.2l.74,0H140.26a14,14,0,0,0,14-14V26.45c0-.25,0-.5,0-.74a12.65,12.65,0,0,0-.53-3.1A13.94,13.94,0,0,1,165.23,36.35Z"/><path class="cls-4" d="M34.77,51.66V34.55h3.62V51.66Z"/><path class="cls-4" d="M50,51.66,45.83,38.23h-.11c.15,2.74.22,4.56.22,5.47v8H42.7V34.55h4.94l4,13.08h.07l4.3-13.08H61V51.66H57.61v-8.1c0-.38,0-.82,0-1.32s.06-1.83.16-4h-.11l-4.41,13.4Z"/><path class="cls-4" d="M72.55,51.66,68.43,38.23h-.11c.15,2.74.22,4.56.22,5.47v8H65.3V34.55h4.94l4.05,13.08h.07l4.3-13.08H83.6V51.66H80.21v-8.1c0-.38,0-.82,0-1.32s.07-1.83.16-4h-.11l-4.41,13.4Z"/><path class="cls-4" d="M101.83,34.55V45.62a6.33,6.33,0,0,1-.85,3.32,5.4,5.4,0,0,1-2.45,2.19,8.72,8.72,0,0,1-3.79.76,7.26,7.26,0,0,1-5.13-1.69,6,6,0,0,1-1.82-4.63v-11H91.4V45a4.42,4.42,0,0,0,.8,2.91,3.33,3.33,0,0,0,2.63.92,3.22,3.22,0,0,0,2.58-.93,4.37,4.37,0,0,0,.8-2.92V34.55Z"/><path class="cls-4" d="M121.2,51.66h-4.61l-7.44-12.95H109c.15,2.29.22,3.92.22,4.9v8H106V34.55h4.58L118,47.36h.08c-.12-2.22-.17-3.79-.17-4.71v-8.1h3.26Z"/><path class="cls-4" d="M135.36,51.66h-9.85V34.55h9.85v3h-6.22v3.76h5.79v3h-5.79v4.41h6.22Z"/><path class="cls-4" d="M44.43,182.3a4.78,4.78,0,0,1-1.57,3.86,6.76,6.76,0,0,1-4.49,1.34H37v5.55H33.64V177.43h5A6.66,6.66,0,0,1,43,178.65,4.47,4.47,0,0,1,44.43,182.3ZM37,184.78H38a3.66,3.66,0,0,0,2.29-.6,2.52,2.52,0,0,0,.12-3.48,3,3,0,0,0-2-.56H37Z"/><path class="cls-4" d="M56.94,193.05l-1.13-3.72H50.12L49,193.05H45.41l5.52-15.68h4l5.53,15.68ZM55,186.56c-1.05-3.37-1.63-5.28-1.77-5.72s-.22-.79-.28-1.05q-.36,1.36-2,6.77Z"/><path class="cls-4" d="M71.7,188.71a4,4,0,0,1-1.52,3.34,6.63,6.63,0,0,1-4.24,1.22,10,10,0,0,1-4.42-.94v-3.08a17.76,17.76,0,0,0,2.68,1,7.54,7.54,0,0,0,2,.29,2.9,2.9,0,0,0,1.67-.41,1.44,1.44,0,0,0,.59-1.24,1.38,1.38,0,0,0-.26-.82,2.73,2.73,0,0,0-.76-.69,18.1,18.1,0,0,0-2-1.06A10,10,0,0,1,63.27,185a4.9,4.9,0,0,1-1.14-1.44,4.1,4.1,0,0,1-.43-1.93,4,4,0,0,1,1.41-3.26A5.82,5.82,0,0,1,67,177.21a9.22,9.22,0,0,1,2.32.28,17.09,17.09,0,0,1,2.32.82l-1.07,2.57a14.64,14.64,0,0,0-2.07-.71,6.41,6.41,0,0,0-1.61-.21,2.16,2.16,0,0,0-1.44.44,1.45,1.45,0,0,0-.5,1.14,1.47,1.47,0,0,0,.2.77,2.18,2.18,0,0,0,.65.63,18.39,18.39,0,0,0,2.1,1.09,8.37,8.37,0,0,1,3,2.1A4.14,4.14,0,0,1,71.7,188.71Z"/><path class="cls-4" d="M83.76,188.71a4,4,0,0,1-1.53,3.34A6.6,6.6,0,0,1,78,193.27a10.09,10.09,0,0,1-4.43-.94v-3.08a18.17,18.17,0,0,0,2.68,1,7.6,7.6,0,0,0,2,.29,2.93,2.93,0,0,0,1.68-.41,1.46,1.46,0,0,0,.58-1.24,1.38,1.38,0,0,0-.26-.82,2.82,2.82,0,0,0-.75-.69,18.55,18.55,0,0,0-2-1.06A9.62,9.62,0,0,1,75.33,185a5.11,5.11,0,0,1-1.15-1.44,4.22,4.22,0,0,1-.42-1.93,4,4,0,0,1,1.4-3.26A5.84,5.84,0,0,1,79,177.21a9.3,9.3,0,0,1,2.33.28,16.52,16.52,0,0,1,2.31.82l-1.07,2.57a15,15,0,0,0-2.06-.71,6.47,6.47,0,0,0-1.61-.21,2.12,2.12,0,0,0-1.44.44,1.43,1.43,0,0,0-.51,1.14,1.39,1.39,0,0,0,.21.77,2.13,2.13,0,0,0,.64.63,20.46,20.46,0,0,0,2.1,1.09,8.52,8.52,0,0,1,3,2.1A4.14,4.14,0,0,1,83.76,188.71Z"/><path class="cls-4" d="M97.38,182.3a4.78,4.78,0,0,1-1.57,3.86,6.76,6.76,0,0,1-4.49,1.34H89.9v5.55H86.59V177.43h5a6.66,6.66,0,0,1,4.32,1.22A4.47,4.47,0,0,1,97.38,182.3Zm-7.48,2.48H91a3.66,3.66,0,0,0,2.29-.6,2.1,2.1,0,0,0,.76-1.76,2.14,2.14,0,0,0-.64-1.72,3,3,0,0,0-2-.56H89.9Z"/><path class="cls-4" d="M114.51,185.22a8.47,8.47,0,0,1-1.92,6,8.32,8.32,0,0,1-11,0,8.51,8.51,0,0,1-1.92-6,8.38,8.38,0,0,1,1.93-6,7.21,7.21,0,0,1,5.53-2.06,7.1,7.1,0,0,1,5.5,2.08A8.46,8.46,0,0,1,114.51,185.22Zm-11.4,0a6.52,6.52,0,0,0,1,3.94,3.48,3.48,0,0,0,3,1.33q4,0,4-5.27c0-3.52-1.32-5.28-3.94-5.28a3.51,3.51,0,0,0-3,1.33A6.52,6.52,0,0,0,103.11,185.22Z"/><path class="cls-4" d="M121.06,187.06v6h-3.31V177.43h4.55a7.83,7.83,0,0,1,4.72,1.16,4.65,4.65,0,0,1,.77,6,5.1,5.1,0,0,1-2.15,1.69q3.52,5.26,4.59,6.8h-3.67l-3.73-6Zm0-2.69h1.07a4.08,4.08,0,0,0,2.32-.53,1.87,1.87,0,0,0,.75-1.64,1.73,1.73,0,0,0-.77-1.59,4.62,4.62,0,0,0-2.36-.47h-1Z"/><path class="cls-4" d="M138.23,193.05h-3.32V180.19h-4.24v-2.76h11.8v2.76h-4.24Z"/><path class="cls-5" d="M129.62,101.86a9.39,9.39,0,0,0-8.71-6,37.53,37.53,0,0,0-2.13-3.58A12.84,12.84,0,0,0,98.39,76.73,39.74,39.74,0,0,0,89,74.84a10.76,10.76,0,0,0-.47-1.63,11,11,0,0,0-21,6.07A38.87,38.87,0,0,0,59.35,85,9.39,9.39,0,1,0,49,100.33a39.19,39.19,0,0,0-2.47,11.52,8.15,8.15,0,0,0-1.13.35,9.37,9.37,0,0,0,4.44,18.06,39.12,39.12,0,0,0,7,10.74,13.32,13.32,0,0,0,23.57,12.39,39.18,39.18,0,0,0,10.38.08,11,11,0,0,0,19.6-8.16,39.68,39.68,0,0,0,7.53-7.85,9.39,9.39,0,0,0,7.1-17.37,39.24,39.24,0,0,0,.43-6.69A9.39,9.39,0,0,0,129.62,101.86Z"/><line class="cls-6" x1="109.15" y1="83.66" x2="105.11" y2="89.36"/><line class="cls-6" x1="104.27" y1="107.43" x2="97.44" y2="108.85"/><line class="cls-6" x1="70.42" y1="107.19" x2="65.22" y2="102.52"/><line class="cls-6" x1="69.8" y1="147.7" x2="73.03" y2="141.15"/><line class="cls-6" x1="59.61" y1="120.73" x2="51.15" y2="120.83"/><line class="cls-6" x1="81.59" y1="91.77" x2="80.04" y2="84.64"/><line class="cls-6" x1="97.96" y1="144.58" x2="94.66" y2="138.07"/><line class="cls-6" x1="109.1" y1="124.95" x2="115.33" y2="126.64"/><line class="cls-6" x1="81.44" y1="122.45" x2="87.67" y2="124.15"/></g></g></svg>