<svg xmlns="http://www.w3.org/2000/svg" viewBox="0 0 188.87 231.5"><defs><style>.cls-1{fill:#82baff;}.cls-1,.cls-2,.cls-3,.cls-4{stroke:#30302d;stroke-miterlimit:10;stroke-width:3px;}.cls-2{fill:none;}.cls-3{fill:#fff;}.cls-4{fill:#ffc3b8;}.cls-5{fill:#30302d;}</style></defs><g id="Layer_2" data-name="Layer 2"><g id="Layer_1-2" data-name="Layer 1"><path class="cls-1" d="M187.05,178.48a3.05,3.05,0,0,1-3.17,2.91l-.3,0,1.06,11c-2,.62-3.9,1.14-5.85,1.56a58.42,58.42,0,0,1-9.63,1.3c-1.53.07-3.07.09-4.58,0A56.62,56.62,0,0,1,155,194.2a60.88,60.88,0,0,1-6.77-1.79l1-10.69a2.17,2.17,0,0,1-.71.13,3.06,3.06,0,0,1-3.18-2.91c-.26-5.79-.68-18.35.31-24.08,1.3-7.47,4.48-14.74,9.79-20.15a.14.14,0,0,1,.06-.07c2.4-2.93,6.41-4.22,10.92-4.22a15.71,15.71,0,0,1,8.9,2.35,10,10,0,0,1,2.1,1.95.05.05,0,0,1,0,0,38.24,38.24,0,0,1,9.3,19.64C187.74,160.13,187.32,172.69,187.05,178.48Z"/><path class="cls-1" d="M149.23,181.72a3.08,3.08,0,0,0,2.14-2.52c1.29-11.1.7-26.06,4.78-30.49"/><path class="cls-1" d="M176.73,148.71c4.09,4.43,3.5,19.39,4.78,30.49a3,3,0,0,0,1,1.83,2.88,2.88,0,0,0,1.18.69"/><path class="cls-2" d="M155.67,134.46l-.17.18"/><path class="cls-2" d="M177.42,134.72c-.22-.24-.46-.48-.69-.72"/><circle class="cls-3" cx="166.42" cy="117.62" r="12.8"/><path class="cls-3" d="M164.58,195.32,162.73,230h-5.86L155,194.2A56.62,56.62,0,0,0,164.58,195.32Z"/><path class="cls-3" d="M178.79,194l-1.91,36H171l-1.85-34.73A58.42,58.42,0,0,0,178.79,194Z"/><path class="cls-3" d="M22.65,176.6,17.91,230H11.85L10,175.14A82.29,82.29,0,0,0,22.65,176.6Z"/><path class="cls-3" d="M37.46,175.05,35.64,230H29.57l-4.73-53.42A89.65,89.65,0,0,0,37.46,175.05Z"/><path class="cls-1" d="M45.69,184.5a3.15,3.15,0,0,1-4,2.88c-2.63-.67-2.9-2-2.77-6.24a.18.18,0,0,0-.27-.16c-5.34,3.63-10.28,3.55-15,3.62s-9.38,0-14.73-3.62a.18.18,0,0,0-.27.16c.13,4.2-.14,5.57-2.77,6.24a3.16,3.16,0,0,1-4-2.88c-.88-15.24.17-33.14,1.65-40.28a16.2,16.2,0,0,1,15.76-12.87l4.53,0,4.52,0A16.19,16.19,0,0,1,44,144.22C45.52,151.36,46.57,169.26,45.69,184.5Z"/><path class="cls-1" d="M6.38,187.22a2.71,2.71,0,0,0,2.1-2.42c.66-7.82-.9-35.07,3.12-39.82"/><path class="cls-2" d="M36,145c4,4.75,2.46,32,3.12,39.82a2.71,2.71,0,0,0,2.1,2.42"/><circle class="cls-3" cx="23.61" cy="118.05" r="13.23"/><path class="cls-3" d="M94,85.08l-4.74,53.4h-6L81.44,83.62A82.3,82.3,0,0,0,94,85.08Z"/><path class="cls-3" d="M108.86,83.53,107,138.48H101L96.23,85.06A88.16,88.16,0,0,0,108.86,83.53Z"/><path class="cls-4" d="M117.09,93a3.15,3.15,0,0,1-4,2.88c-2.63-.67-2.9-2-2.77-6.24a.17.17,0,0,0-.27-.15C104.68,93.1,99.75,93,95,93.08s-9.39,0-14.73-3.61a.17.17,0,0,0-.27.15c.13,4.21-.14,5.57-2.77,6.24a3.15,3.15,0,0,1-4-2.88c-.88-15.24.17-33.14,1.65-40.28A16.2,16.2,0,0,1,90.63,39.83l4.52,0,4.53,0A16.21,16.21,0,0,1,115.44,52.7C116.92,59.84,118,77.74,117.09,93Z"/><path class="cls-4" d="M77.78,95.7a2.69,2.69,0,0,0,2.1-2.42c.66-7.82-.9-35.07,3.12-39.82"/><path class="cls-2" d="M107.37,53.46c4,4.75,2.46,32,3.12,39.82a2.69,2.69,0,0,0,2.1,2.42"/><circle class="cls-3" cx="95.01" cy="26.53" r="13.23"/><path class="cls-2" d="M114.31,166,69.7,210.59A31.86,31.86,0,0,1,114.31,166Z"/><path class="cls-2" d="M127,191.42a31.86,31.86,0,0,1-51,25.45l44.61-44.61A31.72,31.72,0,0,1,127,191.42Z"/><path class="cls-4" d="M95.15,152.85a38.58,38.58,0,1,0,38.58,38.57A38.57,38.57,0,0,0,95.15,152.85Zm-30.3,38.57a30.3,30.3,0,0,1,48.53-24.2L70.94,209.66A30.17,30.17,0,0,1,64.85,191.42Zm30.3,30.31a30.18,30.18,0,0,1-18.24-6.1l42.44-42.44a30.31,30.31,0,0,1-24.2,48.54Z"/><path class="cls-5" d="M53.11,32.56a1.31,1.31,0,0,0-1.48-.28c-.16-.13-.32-.24-.48-.35a1.83,1.83,0,0,0-3.1-1.6,1.88,1.88,0,0,0-.46.76,6.23,6.23,0,0,0-1.33.3.84.84,0,0,0-.15-.18,1.56,1.56,0,0,0-2.38,2A5.68,5.68,0,0,0,43,34.43a1.34,1.34,0,0,0-1.41,2.2,1.36,1.36,0,0,0,1,.4,5.85,5.85,0,0,0,.34,1.64l-.12.11a1.33,1.33,0,0,0,1.62,2.09,5.77,5.77,0,0,0,1.54,1,1.9,1.9,0,0,0,3.24,1.42,1.87,1.87,0,0,0,.54-1.17,5.84,5.84,0,0,0,1.36-.59,1.56,1.56,0,0,0,2.08-2.2,5.41,5.41,0,0,0,.52-1.46,1.34,1.34,0,0,0-.08-2.67,5,5,0,0,0-.33-.89A1.33,1.33,0,0,0,53.11,32.56Z"/><path class="cls-5" d="M71.19,5.51a1.28,1.28,0,0,0-1.43-.27,5,5,0,0,0-.47-.33,1.79,1.79,0,0,0-.49-1.55,1.77,1.77,0,0,0-2.49,0,1.85,1.85,0,0,0-.45.74,5.78,5.78,0,0,0-1.28.29,1.19,1.19,0,0,0-.15-.18,1.5,1.5,0,0,0-2.29,1.93,5.52,5.52,0,0,0-.71,1.18A1.29,1.29,0,1,0,61,9.82a5.37,5.37,0,0,0,.33,1.58l-.12.11a1.29,1.29,0,0,0,1.57,2,5.33,5.33,0,0,0,1.48,1,1.83,1.83,0,0,0,3.12,1.37,1.81,1.81,0,0,0,.53-1.13,5.6,5.6,0,0,0,1.31-.57,1.5,1.5,0,0,0,2-2.11,5.68,5.68,0,0,0,.51-1.41,1.29,1.29,0,0,0-.08-2.58,5.58,5.58,0,0,0-.32-.86A1.31,1.31,0,0,0,71.19,5.51Z"/><path class="cls-5" d="M122.6,2.66a1.32,1.32,0,0,0-1.43-.27,5,5,0,0,0-.47-.33,1.74,1.74,0,0,0-.49-1.54,1.77,1.77,0,0,0-2.49,0,1.8,1.8,0,0,0-.44.75,5,5,0,0,0-1.28.28l-.15-.18a1.51,1.51,0,0,0-2.3,1.94,5.23,5.23,0,0,0-.71,1.17,1.29,1.29,0,0,0-1.36,2.13,1.28,1.28,0,0,0,.91.37,5.79,5.79,0,0,0,.34,1.59l-.12.1a1.28,1.28,0,0,0,1.56,2,5.37,5.37,0,0,0,1.48,1,1.83,1.83,0,0,0,.54,1.36,1.81,1.81,0,0,0,2.58,0,1.73,1.73,0,0,0,.53-1.12,5.26,5.26,0,0,0,1.31-.57,1.51,1.51,0,0,0,1.79-.26,1.49,1.49,0,0,0,.21-1.86,5.19,5.19,0,0,0,.51-1.41,1.22,1.22,0,0,0,.81-.37,1.27,1.27,0,0,0,0-1.82,1.23,1.23,0,0,0-.89-.38,5.33,5.33,0,0,0-.32-.87A1.28,1.28,0,0,0,122.6,2.66Z"/><path class="cls-5" d="M143,33.07a1.53,1.53,0,0,0-1.7-.32c-.18-.14-.36-.27-.55-.39a2.1,2.1,0,0,0-3.55-1.84,2,2,0,0,0-.52.88,6.26,6.26,0,0,0-1.53.34,1.24,1.24,0,0,0-.18-.22,1.79,1.79,0,0,0-2.72,2.3,6.12,6.12,0,0,0-.84,1.4,1.55,1.55,0,0,0-1.62.35,1.54,1.54,0,0,0,1.08,2.62,6.38,6.38,0,0,0,.4,1.88l-.15.13A1.53,1.53,0,0,0,133,42.6a6.36,6.36,0,0,0,1.76,1.13,2.14,2.14,0,0,0,.63,1.62,2.18,2.18,0,0,0,3.07,0,2.13,2.13,0,0,0,.63-1.34,6.54,6.54,0,0,0,1.56-.68,1.78,1.78,0,0,0,2.13-.3,1.8,1.8,0,0,0,.25-2.22,6.3,6.3,0,0,0,.6-1.67,1.5,1.5,0,0,0,1-.44,1.54,1.54,0,0,0,0-2.17,1.58,1.58,0,0,0-1.06-.45,7.35,7.35,0,0,0-.38-1A1.55,1.55,0,0,0,143,33.07Z"/><path class="cls-2" d="M21.07,96a72.55,72.55,0,0,1,13.66-42.5"/><path class="cls-2" d="M153.36,53.49A72.62,72.62,0,0,1,167,96"/></g></g></svg>