<svg xmlns="http://www.w3.org/2000/svg" viewBox="0 0 228.18 215.9"><defs><style>.cls-1,.cls-2{fill:#fff;}.cls-1,.cls-2,.cls-3,.cls-4,.cls-5,.cls-6,.cls-8{stroke:#30302d;stroke-width:3px;}.cls-1,.cls-3,.cls-8{stroke-linecap:round;}.cls-1,.cls-3{stroke-linejoin:round;}.cls-2,.cls-4,.cls-5,.cls-6,.cls-8{stroke-miterlimit:10;}.cls-3,.cls-4{fill:#82baff;}.cls-5,.cls-8{fill:none;}.cls-6{fill:#ffc3b8;}.cls-7{fill:#30302d;}.cls-8{stroke-dasharray:9.51 9.51;}</style></defs><g id="Layer_2" data-name="Layer 2"><g id="Layer_1-2" data-name="Layer 1"><path class="cls-1" d="M79,207c-1.16,0-2.41-.11-4.06-.27-27.27-2.84-46.28-29.32-48.24-53.6a36.58,36.58,0,0,0-.94-5.79l-1.2-4.9a255,255,0,0,1-3.26-29.26c-.21-10.27,7-24.57,15-30,8.86-6,20.11-8,30-9.25a42.36,42.36,0,0,1,5.2-.28c1.95,0,3.9.08,5.78.17C79,73.89,81,74,82.86,74a33.45,33.45,0,0,0,8.52-.91l.66-.18.4.55C97.05,79.73,103,83.18,110,83.7c.78.06,1.63.09,2.61.09s1.89,0,2.81-.05c1.07,0,2-.06,3-.06a23.62,23.62,0,0,1,5.79.6,15.75,15.75,0,0,1,10.25,8.54c1.57,3.45,2.37,10.72,2.47,16.39v.13c0,1.3,0,2.59-.06,3.83l-.08,1.91c-.42,9.14-3,23.45-4.41,30.76-.54,2.82-.9,5.67-1.23,8.53-2.86,24.81-22.5,50.72-50,52.54-.67,0-1.35.08-2,.1H79Z"/><path class="cls-2" d="M25.86,148.63a2,2,0,0,1-1.55,2.53,3.69,3.69,0,0,1-.76.07,8.35,8.35,0,0,1-6.53-4c-1.11-1.8-1.62-4-3.08-5.52s-3.38-2.11-5.1-3.13a15.2,15.2,0,0,1-6.68-9.13A21.71,21.71,0,0,1,2.4,118c.77-2.74,2.05-5.49,4.35-7.16a9.7,9.7,0,0,1,9.81-.48,12.22,12.22,0,0,1,2.6,1.78,15.34,15.34,0,0,0,1.52,1A146.94,146.94,0,0,0,25.86,148.63Z"/><path class="cls-2" d="M132.22,149a1.63,1.63,0,0,0,1.2,2.07,5,5,0,0,0,1.21.16,8.33,8.33,0,0,0,6.53-4c1.11-1.8,1.63-4,3.08-5.52s3.38-2.11,5.11-3.13a15.24,15.24,0,0,0,6.68-9.13,21.82,21.82,0,0,0-.24-11.45c-.77-2.74-2-5.49-4.35-7.16a9.72,9.72,0,0,0-9.82-.48,12.41,12.41,0,0,0-2.59,1.78,15.34,15.34,0,0,1-1.52,1A146.55,146.55,0,0,1,132.22,149Z"/><path class="cls-3" d="M97,69.79a15.55,15.55,0,0,1-2.2,1.31,18.14,18.14,0,0,1-2.51,1c-7.9,2.56-17.34.06-26.08,1.14C55.66,74.58,44.77,76.7,36,82.64c-8.58,5.77-15.52,20.5-15.31,30.56-4-8-7.61-20.51-9-29.29-2-13.15-1.25-27.81,4-40.3S32.65,20.48,45,14,72.65,5.92,85.58,10.7C96.19,14.62,105,23,108.63,33.19a32.41,32.41,0,0,1,1.08,3.73A32.43,32.43,0,0,1,97,69.79Z"/><path class="cls-4" d="M137.5,113.2c.06-1.19.08-2.5.06-3.89v-.09c-.1-6-.92-13.14-2.52-16.67a16.31,16.31,0,0,0-10.69-8.9c-4.63-1.18-9.52-.24-14.28-.6-7.76-.57-13.45-4.6-17.76-10.92a18.14,18.14,0,0,0,2.51-1A15.55,15.55,0,0,0,97,69.79a32.43,32.43,0,0,0,12.69-32.87,32.41,32.41,0,0,0-1.08-3.73,33.39,33.39,0,0,1,20.21,1.59C141.91,40.16,150.47,54,151.35,68.1S147,102.72,137.5,113.2Z"/><path class="cls-5" d="M22.78,59c12.63-31.84,48-46.21,72.83-27.88"/><path class="cls-5" d="M31.79,74.42c11.06-27.36,42-39.71,63.82-24"/><path class="cls-5" d="M117.5,40.49c21,7.15,28.07,24.17,25.05,48.34"/><path class="cls-5" d="M116.33,53.71a17.64,17.64,0,0,1,14.08,17.74"/><path class="cls-6" d="M57.16,105a5.16,5.16,0,1,1-10.31,0c0-2.68,4.57-12.14,5.11-13.23a.06.06,0,0,1,.1,0C52.59,92.83,57.16,102.29,57.16,105Z"/><path class="cls-6" d="M115.78,113.51a5.37,5.37,0,1,1-10.73,0c0-2.79,4.76-12.63,5.31-13.77a.07.07,0,0,1,.11,0C111,100.88,115.78,110.72,115.78,113.51Z"/><path class="cls-6" d="M122.69,146.38a4.86,4.86,0,0,1-9.71,0c0-2.37,3.76-10.3,4.66-12.16a.21.21,0,0,1,.38,0C118.92,136.08,122.69,144,122.69,146.38Z"/><path class="cls-6" d="M43,134.68a5.83,5.83,0,1,1-11.65,0c0-2.83,4.52-12.35,5.6-14.58a.26.26,0,0,1,.46,0C38.53,122.33,43,131.85,43,134.68Z"/><path class="cls-6" d="M87.64,99.79a6.92,6.92,0,1,1-13.84,0c0-3.6,6.13-16.28,6.85-17.75a.07.07,0,0,1,.13,0C81.5,83.51,87.64,96.19,87.64,99.79Z"/><path class="cls-2" d="M226.68,177.52a30.32,30.32,0,1,1-45.89-26,3.4,3.4,0,0,0,1.63-2.94V64.42c0-7.72,6.32-14.46,14-14.4a13.93,13.93,0,0,1,13.83,13.92v84.63a3.41,3.41,0,0,0,1.64,2.94A30.3,30.3,0,0,1,226.68,177.52Z"/><circle class="cls-6" cx="196.36" cy="179.48" r="14.11"/><line class="cls-5" x1="196.36" y1="165.37" x2="196.36" y2="68.05"/><line class="cls-5" x1="182.24" y1="68.05" x2="189.9" y2="68.05"/><line class="cls-5" x1="182.24" y1="82.54" x2="189.9" y2="82.54"/><line class="cls-5" x1="182.24" y1="97.03" x2="189.9" y2="97.03"/><line class="cls-5" x1="182.24" y1="111.52" x2="189.9" y2="111.52"/><line class="cls-5" x1="182.24" y1="126.02" x2="189.9" y2="126.02"/><line class="cls-5" x1="182.24" y1="140.51" x2="189.9" y2="140.51"/><path class="cls-7" d="M167.37,34.53a10.92,10.92,0,0,0,5.33,1.52c4.18,0,5.48-2.67,5.44-4.67,0-3.36-3.07-4.81-6.22-4.81h-1.81V24.13h1.81c2.37,0,5.37-1.22,5.37-4.07,0-1.92-1.22-3.62-4.22-3.62A8.86,8.86,0,0,0,168.26,18l-.85-2.37a11.4,11.4,0,0,1,6.29-1.85c4.74,0,6.88,2.81,6.88,5.73,0,2.48-1.48,4.59-4.44,5.66v.08a6.27,6.27,0,0,1,5.37,6.18c0,3.85-3,7.21-8.77,7.21a12.35,12.35,0,0,1-6.26-1.62Z"/><path class="cls-7" d="M187.46,36a13.22,13.22,0,0,0,2.63-.11,9,9,0,0,0,5-2.33,10.52,10.52,0,0,0,3.18-6.4h-.11a7,7,0,0,1-5.66,2.59c-4.33,0-7.1-3.26-7.1-7.36a8.24,8.24,0,0,1,8.21-8.55c4.92,0,8,4,8,10.14,0,5.29-1.78,9-4.15,11.28a11.94,11.94,0,0,1-7,3.22,15.42,15.42,0,0,1-3,.19Zm1.19-13.84c0,3,1.81,5.11,4.62,5.11A5.38,5.38,0,0,0,198,24.72a2.16,2.16,0,0,0,.29-1.18c0-4.11-1.51-7.25-4.92-7.25C190.61,16.29,188.65,18.73,188.65,22.13Z"/><path class="cls-7" d="M226.2,37.6a12,12,0,0,1-5.14,1c-5.41,0-8.92-3.67-8.92-9.14S215.91,20,221.76,20a10.88,10.88,0,0,1,4.51.92l-.74,2.52a7.44,7.44,0,0,0-3.77-.85c-4.11,0-6.33,3-6.33,6.77,0,4.14,2.67,6.7,6.22,6.7a9.24,9.24,0,0,0,4-.89Z"/><circle class="cls-7" cx="214.77" cy="16.73" r="1.84"/><path class="cls-5" d="M53.42,179.54q25.67-26.47,51.35,0"/><path class="cls-8" d="M17.38,167.8A65,65,0,0,0,57.5,214.4"/><path class="cls-8" d="M83.6,1.5a39.31,39.31,0,0,1,30.92,20.77,4.92,4.92,0,0,0,5,2.6c13.12-1.64,25.61,3.82,31.9,14.14"/></g></g></svg>