<svg xmlns="http://www.w3.org/2000/svg" viewBox="0 0 237.47 230.6"><defs><style>.cls-1{fill:#fff;}.cls-1,.cls-2,.cls-3,.cls-4{stroke:#30302d;stroke-width:3px;}.cls-1,.cls-2,.cls-3{stroke-miterlimit:10;}.cls-2{fill:#82baff;}.cls-3{fill:#ffc3b8;}.cls-4{fill:none;stroke-linecap:round;stroke-linejoin:round;}</style></defs><g id="Layer_2" data-name="Layer 2"><g id="Layer_1-2" data-name="Layer 1"><polygon class="cls-1" points="197.55 113.69 120.5 57.23 43.44 113.69 43.44 215.29 197.55 215.29 197.55 113.69"/><rect class="cls-1" x="54.51" y="59.6" width="18.18" height="40.3"/><polygon class="cls-2" points="206.8 131.17 120.5 67.66 34.2 131.17 24.24 117.64 120.5 46.8 216.75 117.64 206.8 131.17"/><path class="cls-1" d="M120.5,147.07h0a50.17,50.17,0,0,1,50.17,50.17V229.1a0,0,0,0,1,0,0H70.32a0,0,0,0,1,0,0V197.25A50.17,50.17,0,0,1,120.5,147.07Z"/><circle class="cls-1" cx="120.5" cy="123.28" r="28.8"/><path class="cls-3" d="M92.19,187.43H148.8a7.14,7.14,0,0,1,7.14,7.14V229.1a0,0,0,0,1,0,0H85a0,0,0,0,1,0,0V194.57A7.14,7.14,0,0,1,92.19,187.43Z"/><path class="cls-1" d="M10.75,57.47a3.61,3.61,0,0,0-1.46,3.8A15.36,15.36,0,0,0,8.14,62.4a4.93,4.93,0,0,0-5.77,7.43,4.85,4.85,0,0,0,1.82,1.59,15.15,15.15,0,0,0,.14,3.68,3.59,3.59,0,0,0-.57.32,4.21,4.21,0,0,0,4.17,7.29,15.11,15.11,0,0,0,2.89,2.55,3.61,3.61,0,1,0,6.66,2.49A15,15,0,0,0,22,87.63a4,4,0,0,0,.23.39,3.61,3.61,0,0,0,6.35-3.3A14.91,14.91,0,0,0,32,81.12a5.12,5.12,0,0,0,2.5-9.93,15.27,15.27,0,0,0-.91-3.89,4.21,4.21,0,0,0-4.83-6.58,14.73,14.73,0,0,0-3.61-2.1,3.64,3.64,0,0,0-.62-2.43A3.62,3.62,0,0,0,18,57.54a14.57,14.57,0,0,0-2.53.44A3.62,3.62,0,0,0,10.75,57.47Z"/><line class="cls-4" x1="13.44" y1="68.69" x2="16.12" y2="68.78"/><line class="cls-4" x1="28.24" y1="71.22" x2="25.43" y2="71.09"/><line class="cls-4" x1="22.74" y1="77.9" x2="21.97" y2="81.06"/><line class="cls-4" x1="14.8" y1="76.1" x2="13.06" y2="78.3"/><line class="cls-4" x1="22.08" y1="65.67" x2="21.14" y2="63.38"/><path class="cls-1" d="M173.82,29.73A4.62,4.62,0,0,0,172,34.59,20,20,0,0,0,170.48,36a6.31,6.31,0,0,0-5,11.55,19,19,0,0,0,.18,4.7,5.3,5.3,0,0,0-.73.42A5.4,5.4,0,0,0,170.22,62a19.21,19.21,0,0,0,3.69,3.25,4.62,4.62,0,0,0,6.61,6.16,4.57,4.57,0,0,0,1.92-3,19.47,19.47,0,0,0,5.8-.15,4.29,4.29,0,0,0,.29.5,4.62,4.62,0,0,0,8.13-4.22A19.26,19.26,0,0,0,201,60a6.55,6.55,0,0,0,3.19-12.7,19.28,19.28,0,0,0-1.16-5,5.4,5.4,0,0,0-6.18-8.43,19,19,0,0,0-4.63-2.69A4.62,4.62,0,0,0,185,26.9a4.63,4.63,0,0,0-1.91,2.91,18.14,18.14,0,0,0-3.25.57A4.62,4.62,0,0,0,173.82,29.73Z"/><line class="cls-4" x1="177.26" y1="44.08" x2="180.7" y2="44.2"/><line class="cls-4" x1="196.21" y1="47.32" x2="192.62" y2="47.15"/><line class="cls-4" x1="189.17" y1="55.88" x2="188.18" y2="59.92"/><line class="cls-4" x1="179.01" y1="53.57" x2="176.79" y2="56.39"/><line class="cls-4" x1="188.33" y1="40.22" x2="187.13" y2="37.28"/><path class="cls-1" d="M213.62,173.6a2.79,2.79,0,0,0,3.14-.26,8.16,8.16,0,0,0,1.17.42,3.81,3.81,0,0,0,7.11,1.52,3.9,3.9,0,0,0,.5-1.8,11.85,11.85,0,0,0,2.51-1.33,3,3,0,0,0,.41.29,3.26,3.26,0,0,0,3.68-5.35,11.49,11.49,0,0,0,.8-2.87,2.79,2.79,0,0,0,1.62-5.2,2.74,2.74,0,0,0-2.12-.27,11.46,11.46,0,0,0-1.6-3.11l.19-.29A2.79,2.79,0,0,0,226.6,152a11.84,11.84,0,0,0-3.64-1.14,4,4,0,0,0-7.29-1.06,4,4,0,0,0-.46,2.66,11.67,11.67,0,0,0-2.4,1.94,3.26,3.26,0,0,0-3,5.57,11.31,11.31,0,0,0-.25,3.22,2.79,2.79,0,0,0,1.64,5.33,12.26,12.26,0,0,0,1.16,1.62A2.8,2.8,0,0,0,213.62,173.6Z"/><line class="cls-4" x1="220.53" y1="167.96" x2="219.69" y2="166.06"/><line class="cls-4" x1="217.32" y1="156.81" x2="218.17" y2="158.81"/><line class="cls-4" x1="223.82" y1="158.4" x2="226.28" y2="157.87"/><line class="cls-4" x1="225.23" y1="164.52" x2="227.35" y2="164.99"/><line class="cls-4" x1="215.53" y1="162.96" x2="214.24" y2="164.38"/><path class="cls-1" d="M10.3,177.88a2.76,2.76,0,0,0,3.12-.25c.38.16.77.3,1.16.42a3.79,3.79,0,0,0,7.06,1.51,3.9,3.9,0,0,0,.5-1.79,12.14,12.14,0,0,0,2.49-1.32,3.71,3.71,0,0,0,.41.28,3.24,3.24,0,0,0,3.66-5.31,11.76,11.76,0,0,0,.79-2.85,2.77,2.77,0,0,0,1.61-5.17,2.74,2.74,0,0,0-2.1-.27A11.79,11.79,0,0,0,27.4,160a1.81,1.81,0,0,0,.19-.29,2.76,2.76,0,0,0-4.39-3.29,11.52,11.52,0,0,0-3.62-1.13,3.93,3.93,0,0,0-7.24-1.06,3.94,3.94,0,0,0-.46,2.64,11.9,11.9,0,0,0-2.39,1.93,3.24,3.24,0,0,0-2.94,5.53,11.93,11.93,0,0,0-.25,3.2,2.78,2.78,0,0,0,1.64,5.3,11.84,11.84,0,0,0,1.15,1.61A2.75,2.75,0,0,0,10.3,177.88Z"/><line class="cls-4" x1="17.16" y1="172.29" x2="16.33" y2="170.4"/><line class="cls-4" x1="13.98" y1="161.2" x2="14.82" y2="163.19"/><line class="cls-4" x1="20.43" y1="162.78" x2="22.88" y2="162.26"/><line class="cls-4" x1="21.83" y1="168.87" x2="23.94" y2="169.34"/><line class="cls-4" x1="12.19" y1="167.31" x2="10.92" y2="168.73"/><path class="cls-1" d="M74.76,42.52a4.44,4.44,0,0,0,5-.41,18,18,0,0,0,1.86.67,6.07,6.07,0,0,0,12.11-.45,18.23,18.23,0,0,0,4-2.11,5.11,5.11,0,0,0,.66.45,5.19,5.19,0,0,0,5.86-8.52,18.25,18.25,0,0,0,1.27-4.56,4.44,4.44,0,1,0-.79-8.71,19,19,0,0,0-2.56-5,3.7,3.7,0,0,0,.31-.46,4.44,4.44,0,0,0-7-5.28,18.61,18.61,0,0,0-5.8-1.81A6.29,6.29,0,0,0,78,4.68a6.29,6.29,0,0,0-.73,4.23A18.81,18.81,0,0,0,73.46,12a5.18,5.18,0,0,0-4.71,8.86,18.6,18.6,0,0,0-.4,5.14A4.44,4.44,0,0,0,71,34.48a18.36,18.36,0,0,0,1.85,2.57A4.44,4.44,0,0,0,74.76,42.52Z"/><line class="cls-4" x1="85.75" y1="33.55" x2="84.42" y2="30.52"/><line class="cls-4" x1="80.64" y1="15.79" x2="82" y2="18.97"/><line class="cls-4" x1="90.99" y1="18.32" x2="94.91" y2="17.48"/><line class="cls-4" x1="93.24" y1="28.07" x2="96.61" y2="28.82"/><line class="cls-4" x1="77.79" y1="25.57" x2="75.74" y2="27.84"/><circle class="cls-3" cx="120.5" cy="208.26" r="8.8"/></g></g></svg>