<svg xmlns="http://www.w3.org/2000/svg" viewBox="0 0 172.09 230.6"><defs><style>.cls-1{fill:#fff;}.cls-1,.cls-2,.cls-3,.cls-4,.cls-5,.cls-6{stroke:#30302d;}.cls-1,.cls-2,.cls-4,.cls-6{stroke-miterlimit:10;}.cls-1,.cls-2,.cls-3,.cls-6{stroke-width:3px;}.cls-2{fill:#82baff;}.cls-3,.cls-5,.cls-6{fill:none;}.cls-3,.cls-5{stroke-linecap:round;stroke-linejoin:round;}.cls-4{fill:#ffc3b8;}.cls-4,.cls-5{stroke-width:2.47px;}.cls-7{fill:#30302d;}</style></defs><g id="Layer_2" data-name="Layer 2"><g id="Layer_1-2" data-name="Layer 1"><rect class="cls-1" x="1.5" y="1.5" width="169.09" height="227.6"/><rect class="cls-2" x="18.22" y="15.97" width="135.66" height="18.64"/><polyline class="cls-3" points="54.4 203.42 54.4 214.61 18.22 214.61 18.22 178.43 54.4 178.43 54.4 183.83"/><path class="cls-4" d="M115.53,170a3.71,3.71,0,0,0-1.5,3.9,16.06,16.06,0,0,0-1.18,1.15,5.06,5.06,0,0,0-4,9.26,15.37,15.37,0,0,0,.14,3.77,6.65,6.65,0,0,0-.58.33,4.33,4.33,0,0,0,4.28,7.49,15.53,15.53,0,0,0,3,2.61,3.7,3.7,0,1,0,6.83,2.56,15.44,15.44,0,0,0,4.65-.13,3.26,3.26,0,0,0,.24.4,3.7,3.7,0,0,0,6.51-3.38,15.33,15.33,0,0,0,3.46-3.7,5.25,5.25,0,0,0,2.56-10.18,15.43,15.43,0,0,0-.93-4,4.33,4.33,0,0,0-4.95-6.76,15,15,0,0,0-3.71-2.15,3.71,3.71,0,0,0-7.32-1.11,14.59,14.59,0,0,0-2.6.45A3.72,3.72,0,0,0,115.53,170Z"/><line class="cls-5" x1="113.46" y1="183.93" x2="116.22" y2="184.03"/><line class="cls-5" x1="133.47" y1="184.12" x2="130.59" y2="183.98"/><line class="cls-5" x1="127.83" y1="190.97" x2="127.04" y2="194.21"/><line class="cls-5" x1="126.68" y1="176.4" x2="125.71" y2="174.05"/><circle class="cls-6" cx="124.87" cy="185.6" r="29.01"/><line class="cls-6" x1="144.36" y1="165.13" x2="103.87" y2="205.62"/><path class="cls-6" d="M18.22,159.45H33l6.32-3.74a1.81,1.81,0,0,1,2.57.81l1.3,2.93h14.3l13.08-5.17A1.82,1.82,0,0,1,73,155.62l.73,3.83H88.51"/><line class="cls-6" x1="70.54" y1="75.01" x2="153.87" y2="75.01"/><line class="cls-6" x1="18.22" y1="75.01" x2="49.94" y2="75.01"/><line class="cls-6" x1="107.21" y1="54.56" x2="153.87" y2="54.56"/><line class="cls-6" x1="18.22" y1="54.56" x2="98.12" y2="54.56"/><line class="cls-6" x1="104.14" y1="136.35" x2="153.87" y2="136.35"/><line class="cls-6" x1="18.22" y1="136.35" x2="90.22" y2="136.35"/><line class="cls-6" x1="54.4" y1="116.11" x2="153.87" y2="116.11"/><line class="cls-6" x1="18.22" y1="116.11" x2="38.5" y2="116.11"/><line class="cls-6" x1="106.04" y1="95.46" x2="153.87" y2="95.46"/><line class="cls-6" x1="18.22" y1="95.46" x2="98.12" y2="95.46"/><polygon class="cls-7" points="42.55 208.96 23.53 189.94 27.77 185.7 42.55 200.48 67.92 175.1 72.17 179.35 42.55 208.96"/></g></g></svg>