<svg xmlns="http://www.w3.org/2000/svg" viewBox="0 0 217.77 233"><defs><style>.cls-1{fill:#fff;}.cls-1,.cls-2,.cls-3,.cls-5,.cls-6{stroke:#30302d;stroke-width:3px;}.cls-1,.cls-2,.cls-3,.cls-5{stroke-miterlimit:10;}.cls-2{fill:none;}.cls-3{fill:#ffc3b8;}.cls-4{fill:#30302d;}.cls-5,.cls-6{fill:#82baff;}.cls-6{stroke-linecap:round;stroke-linejoin:round;}</style></defs><g id="Layer_2" data-name="Layer 2"><g id="Layer_1-2" data-name="Layer 1"><path class="cls-1" d="M115.56,25.32V207.68a22.88,22.88,0,0,1-.55,5.06A23.81,23.81,0,0,1,91.74,231.5H25.32A23.81,23.81,0,0,1,2.05,212.74a22.88,22.88,0,0,1-.55-5.06V25.32a22.88,22.88,0,0,1,.55-5.06A23.81,23.81,0,0,1,25.32,1.5H91.74A23.81,23.81,0,0,1,115,20.26,22.88,22.88,0,0,1,115.56,25.32Z"/><path class="cls-2" d="M115.56,25.32V207.68a22.88,22.88,0,0,1-.55,5.06H2.05a22.88,22.88,0,0,1-.55-5.06V25.32a22.88,22.88,0,0,1,.55-5.06H115A22.88,22.88,0,0,1,115.56,25.32Z"/><rect class="cls-2" x="22.89" y="136.57" width="71.29" height="63.79" rx="12.19"/><path class="cls-2" d="M77.66,50.77v52.29a19.13,19.13,0,1,1-38.26,0V50.77a19.13,19.13,0,1,1,38.26,0Z"/><circle class="cls-2" cx="58.53" cy="170.72" r="19.13"/><circle class="cls-3" cx="58.53" cy="170.72" r="10.05"/><rect class="cls-3" x="39.4" y="51.81" width="38.26" height="10.5"/><rect class="cls-3" x="39.4" y="91.52" width="38.26" height="10.5"/><path class="cls-4" d="M23.14,51a4.46,4.46,0,0,0-3.69,1.66,7.09,7.09,0,0,0-1.35,4.59,7.17,7.17,0,0,0,1.29,4.64,4.58,4.58,0,0,0,3.75,1.57,9.9,9.9,0,0,0,2.05-.21c.66-.14,1.34-.32,2.06-.54v2.34a12.6,12.6,0,0,1-4.44.74,7.1,7.1,0,0,1-5.62-2.22,9.26,9.26,0,0,1-2-6.34,10.26,10.26,0,0,1,.95-4.54,6.82,6.82,0,0,1,2.75-3,8.34,8.34,0,0,1,4.23-1,10.58,10.58,0,0,1,4.72,1.07l-1,2.27a15,15,0,0,0-1.78-.7A6.39,6.39,0,0,0,23.14,51Z"/><path class="cls-4" d="M22.56,105.25H19.91v-14H15.12V89H27.35v2.28H22.56Z"/><path class="cls-5" d="M139.94,160.26h51.35a0,0,0,0,1,0,0v45.56a25.68,25.68,0,0,1-25.68,25.68h0a25.68,25.68,0,0,1-25.68-25.68V160.26A0,0,0,0,1,139.94,160.26Z"/><path class="cls-2" d="M165.62,222.79a17,17,0,0,1-17-17V169"/><rect class="cls-5" x="129.87" y="142.32" width="71.5" height="17.94" rx="8.97"/><path class="cls-1" d="M186.56,62v80.31H144.68V62a21,21,0,0,1,30.84-18.46,21.45,21.45,0,0,1,4.9,3.64A20.91,20.91,0,0,1,186.56,62Z"/><path class="cls-1" d="M175.52,11.41V43.55a21,21,0,0,0-19.8,0V11.41a9.9,9.9,0,1,1,19.8,0Z"/><path class="cls-6" d="M198,12.18c4.52,2.75,9.25,6.42,12.39,10.69a30,30,0,0,1,5.8,15.41,17.36,17.36,0,0,1-5.3,14.39c-3.77,3.36-9.05,4.55-14.1,4.47-3.91-.06-8-.93-10.85-3.65-3.14-3-4-7.78-3.76-12.15s1.4-8.65,1.58-13c.42-10.22-5.26-22.2-16.72-26.71C176.62,2.24,190.49,7.6,198,12.18Z"/><line class="cls-2" x1="153.13" y1="63.76" x2="153.13" y2="120.72"/><path class="cls-2" d="M199.38,23.78A24.55,24.55,0,0,1,207.66,33,14.32,14.32,0,0,1,208.08,45c-1.78,3.77-6,6.47-10.07,5.92"/></g></g></svg>