<svg xmlns="http://www.w3.org/2000/svg" viewBox="0 0 212.34 233"><defs><style>.cls-1{fill:none;}.cls-1,.cls-2,.cls-3,.cls-4{stroke:#30302d;stroke-miterlimit:10;stroke-width:3px;}.cls-2{fill:#82baff;}.cls-3{fill:#fff;}.cls-4{fill:#ffc3b8;}.cls-5{fill:#30302d;}</style></defs><g id="Layer_2" data-name="Layer 2"><g id="Layer_1-2" data-name="Layer 1"><line class="cls-1" x1="108.51" y1="6.1" x2="108.51" y2="108.43"/><line class="cls-1" x1="146.17" y1="6.1" x2="70.85" y2="6.1"/><line class="cls-1" x1="6.18" y1="108.43" x2="210.84" y2="108.43"/><line class="cls-1" x1="6.18" y1="70.77" x2="6.18" y2="119.38"/><line class="cls-1" x1="210.84" y1="95.08" x2="210.84" y2="146.09"/><path class="cls-2" d="M43,110.1c-1.53,11.62-8.65,21.59-14.54,31.73A168.87,168.87,0,0,0,8.67,194.51C7,203,8.38,214.59,21.08,212.65c46.48-7.1,90-2.52,127.13,13.35,8.25,3.53,18.89.17,25.59-5.8,7.63-6.79,8.13-18.66,5.65-28.57s-7.32-19.24-8.44-29.4c-1.81-16.44,6.3-32.15,13.72-46.94,8.2-16.36,16.07-34.82,9.11-52.51A14.66,14.66,0,0,0,187,55c-8-4-13.86-1.56-28.06,4.8-11.72,5.26-20.36,3.36-29.72,1.42s-17.77-6.81-26.73-10.13C80.35,42.94,70.22,34.72,44.88,34.8c-8.05,0-19.64,3.62-19.8,13.89-.15,9.52,6.75,20,10.51,28.5C40.19,87.52,44.47,98.58,43,110.1Z"/><path class="cls-1" d="M163.18,69.35c33.3-20.19,23.37,23.21,12.2,41.25"/><path class="cls-1" d="M45.15,72.93c-1-2.27-2.2-4.63-3.36-6.91-3-5.87-6.32-12.53-6.25-17.16-.66-10.11,35.07.27,47.51,5.62"/><path class="cls-3" d="M147.7,172.69l-8,7.39a11.21,11.21,0,0,1-16.19-2l-.1-.14a11.17,11.17,0,0,1-2-8.83l8.44-42.61a7.46,7.46,0,0,0-5.87-8.76,7.91,7.91,0,0,0-1.45-.14,7.44,7.44,0,0,0-7.3,6l-8.17,41.26a1.05,1.05,0,0,1-1.33.81h0a1.09,1.09,0,0,1-.78-1V114.25a7.61,7.61,0,0,0-7.32-7.7A7.45,7.45,0,0,0,90.07,114v50.15a1.06,1.06,0,0,1-.85,1l-.23.05a1.06,1.06,0,0,1-1.28-.84l-8.07-40.76a7.44,7.44,0,0,0-7.3-6,8.11,8.11,0,0,0-1.46.14A7.45,7.45,0,0,0,65,126.53L73.7,170.4a3,3,0,0,1-1.2,3h0A3,3,0,0,1,68,172l-8.78-25.08a7.45,7.45,0,0,0-7-5,7.62,7.62,0,0,0-2.46.42,7.46,7.46,0,0,0-4.57,9.5s20.12,58.67,21.42,61.24a33.69,33.69,0,0,0,15.36,15.11,35.06,35.06,0,0,0,6.55,2.37,33.18,33.18,0,0,0,4.7.8,31.05,31.05,0,0,0,3.35.17,34.24,34.24,0,0,0,4.56-.31,33.17,33.17,0,0,0,8.61-2.38,37,37,0,0,0,4-2c17-9.67,46.33-39.28,46.33-39.28a9.62,9.62,0,0,0,1.24-13.55h0A9.62,9.62,0,0,0,147.7,172.69Z"/><rect class="cls-4" x="7.86" y="-0.43" width="14.28" height="37.17" rx="7.14" transform="translate(12.63 -5.28) rotate(33.78)"/><rect class="cls-4" x="188.02" y="14.9" width="9.18" height="23.9" rx="4.59" transform="translate(330.51 -110.28) rotate(127.23)"/><rect class="cls-4" x="197.2" y="177.23" width="10.84" height="28.23" rx="5.42" transform="translate(437.29 341.69) rotate(169.29)"/><circle class="cls-5" cx="140.97" cy="40.15" r="5.21"/><circle class="cls-5" cx="46.36" cy="17.15" r="3.07"/><circle class="cls-5" cx="190.02" cy="157.52" r="5.08"/><circle class="cls-5" cx="4.08" cy="140.69" r="4.03"/></g></g></svg>