<svg xmlns="http://www.w3.org/2000/svg" viewBox="0 0 226.58 233"><defs><style>.cls-1{fill:#fff;}.cls-1,.cls-2,.cls-3,.cls-4,.cls-5{stroke:#30302d;stroke-width:3px;}.cls-1,.cls-3,.cls-4,.cls-5{stroke-miterlimit:10;}.cls-2,.cls-3{fill:none;}.cls-2{stroke-linecap:round;stroke-linejoin:round;}.cls-4{fill:#ffc3b8;}.cls-5{fill:#82baff;}</style></defs><g id="Layer_2" data-name="Layer 2"><g id="Layer_1-2" data-name="Layer 1"><path class="cls-1" d="M121,226.14l-.11.08c-23.28-10.86-48.86-7.87-75.26,0a.12.12,0,0,1-.14-.15c3.24-25.61,18.23-51.56,18.23-51.56-11.16-3.15-19-8.24-26.92-17.41A94.17,94.17,0,0,1,107,1.51c37-.46,69.8,20.08,85,51.07,6.33,12.93-5.21,22.53-14.05,27.65A21,21,0,0,0,167.64,95.5a19.73,19.73,0,0,0-.22,3A21,21,0,0,0,170.86,110l3.63,5.57,4.43,6.79a12.31,12.31,0,0,1,.82,12,10.1,10.1,0,0,1-.49.92,6.85,6.85,0,0,1-2.68,2.58h0c-3.48,1.93-7.51,1.92-11.33,2.59a31.5,31.5,0,0,0-13.91,6.15c-2.63,2-5,4.63-6,7.82s-.17,7.08,2.51,9.07a17.51,17.51,0,0,0,3.32,1.78,8.08,8.08,0,0,1,4.54,9.64,15.19,15.19,0,0,1-.75,2.21c-4.66,8.67-11.89,7.88-21.81,6.47a2.46,2.46,0,0,0-2.41,1.06C127.84,189,119,204.19,121,226.14Z"/><path class="cls-1" d="M225.08,102.05a4,4,0,0,0-2.54-3.71,16.82,16.82,0,0,0-.3-1.75,5.45,5.45,0,0,0-5.73-9.24,16.49,16.49,0,0,0-3.43-2.18,4.17,4.17,0,0,0,.06-.71,4.65,4.65,0,0,0-9.24-.78,16.59,16.59,0,0,0-4.12,1,4,4,0,1,0-6.44,4.49,16.76,16.76,0,0,0-2.73,4.2,4,4,0,0,0-.5,0,4,4,0,0,0-1,7.84,16.93,16.93,0,0,0,1.16,5.33,5.65,5.65,0,0,0,7.47,8.48,16.21,16.21,0,0,0,4.1,1.61,4.66,4.66,0,0,0,9-.26,16.67,16.67,0,0,0,4.18-2,3.94,3.94,0,0,0,2.59,1,4,4,0,0,0,2.86-6.77,16.85,16.85,0,0,0,1.18-2.59A4,4,0,0,0,225.08,102.05Z"/><line class="cls-2" x1="213.2" y1="97.47" x2="211.43" y2="99.85"/><line class="cls-2" x1="201.63" y1="109.34" x2="203.5" y2="106.87"/><line class="cls-2" x1="199" y1="100.15" x2="196.61" y2="97.47"/><line class="cls-2" x1="205.61" y1="94.07" x2="204.69" y2="91.11"/><line class="cls-2" x1="210.53" y1="107.22" x2="213.2" y2="107.8"/><path class="cls-1" d="M29.34,174.83a3.13,3.13,0,0,0-3.46-.65,12.34,12.34,0,0,0-1.14-.8,4.27,4.27,0,0,0-8.29-2,14,14,0,0,0-3.11.69,3.57,3.57,0,0,0-.36-.43,3.65,3.65,0,0,0-5.56,4.68,13.05,13.05,0,0,0-1.71,2.86,3.12,3.12,0,1,0-1.09,6.05,13.36,13.36,0,0,0,.81,3.84,3.48,3.48,0,0,0-.3.26,3.12,3.12,0,0,0,3.8,4.89,13.25,13.25,0,0,0,3.59,2.31,4.42,4.42,0,0,0,7.55,3.31,4.47,4.47,0,0,0,1.29-2.74,13.15,13.15,0,0,0,3.16-1.37,3.64,3.64,0,0,0,4.85-5.13,12.91,12.91,0,0,0,1.23-3.41,3.07,3.07,0,0,0,2-.9,3.13,3.13,0,0,0,0-4.42,3.07,3.07,0,0,0-2.16-.92,13.47,13.47,0,0,0-.77-2.09A3.14,3.14,0,0,0,29.34,174.83Z"/><line class="cls-2" x1="20.22" y1="178.87" x2="20.55" y2="181.16"/><line class="cls-2" x1="20.36" y1="191.86" x2="20.04" y2="189.45"/><line class="cls-2" x1="13.82" y1="188.21" x2="11.01" y2="188.05"/><line class="cls-2" x1="14.12" y1="181.18" x2="11.97" y2="180.05"/><line class="cls-2" x1="24.13" y1="185.76" x2="25.93" y2="184.6"/><path class="cls-1" d="M154.19,230.5A3.12,3.12,0,0,0,157.4,229a12.91,12.91,0,0,0,1.39,0,4.27,4.27,0,0,0,8.07-1.08,4.45,4.45,0,0,0-.15-2.09,13,13,0,0,0,2.14-2.35,3.44,3.44,0,0,0,.55.15,3.65,3.65,0,0,0,1.85-7,12.66,12.66,0,0,0-.23-3.32,3.12,3.12,0,0,0-.26-6.1,3.09,3.09,0,0,0-2.33.52,13,13,0,0,0-2.87-2.67c0-.13.07-.25.1-.38a3.12,3.12,0,0,0-5.92-1.83,13.16,13.16,0,0,0-4.26.17,4.43,4.43,0,0,0-8.09,1.64,4.39,4.39,0,0,0,.52,3,13,13,0,0,0-1.8,2.95,3.64,3.64,0,0,0-1,7,13,13,0,0,0,.95,3.5,3,3,0,0,0-1.09,1.86,3.12,3.12,0,0,0,4.83,3.13,13,13,0,0,0,1.83,1.27A3.13,3.13,0,0,0,154.19,230.5Z"/><line class="cls-2" x1="159.35" y1="221.96" x2="157.75" y2="220.27"/><line class="cls-2" x1="151.76" y1="211.41" x2="153.41" y2="213.19"/><line class="cls-2" x1="159.21" y1="210.63" x2="161.6" y2="209.15"/><line class="cls-2" x1="163.01" y1="216.56" x2="165.41" y2="216.25"/><line class="cls-2" x1="152.19" y1="218.56" x2="151.37" y2="220.55"/><line class="cls-3" x1="198.1" y1="170.51" x2="179.72" y2="162.87"/><line class="cls-3" x1="199.79" y1="142.01" x2="183.19" y2="146.7"/><line class="cls-3" x1="183.49" y1="189.01" x2="173.77" y2="175.62"/><path class="cls-4" d="M125.68,111.37c0-4.52-8.18-17.3-8.18-17.3s-8.17,12.78-8.17,17.3a8.18,8.18,0,0,0,16.35,0Z"/><path class="cls-4" d="M116.06,146.88c0-3.72-6.73-14.25-6.73-14.25s-6.74,10.53-6.74,14.25a6.74,6.74,0,1,0,13.47,0Z"/><path class="cls-4" d="M149,126.14c0-3.72-6.74-14.26-6.74-14.26s-6.73,10.54-6.73,14.26a6.74,6.74,0,0,0,13.47,0Z"/><path class="cls-5" d="M178,80.23l-.1.06A36.65,36.65,0,0,1,151,84.73l-30.73-7.09a17,17,0,0,0-18,7.07h0a17.09,17.09,0,0,0-2.9,9.52v9.42a9.61,9.61,0,0,1-9.61,9.61h0A9.61,9.61,0,0,1,82.63,110h0a11.94,11.94,0,0,0-2.92-2.22,16.41,16.41,0,0,0-24.49,12.13,11.11,11.11,0,0,0-.08,1.19h0a43.6,43.6,0,0,0,13.59,31.61l7.76,7.36c8.22,7.32,2.55,17.41-5.37,16.14-15.26-2.94-24.77-8.06-34.29-19.12A94.18,94.18,0,0,1,107,1.51c37-.46,69.81,20.08,85,51.07C198.34,65.51,186.82,75.1,178,80.23Z"/></g></g></svg>