<svg xmlns="http://www.w3.org/2000/svg" viewBox="0 0 206.79 229.04"><defs><style>.cls-1,.cls-2,.cls-5{fill:none;}.cls-1,.cls-2,.cls-3,.cls-4,.cls-5,.cls-6{stroke:#30302d;stroke-width:3px;}.cls-1,.cls-2,.cls-3,.cls-4{stroke-miterlimit:10;}.cls-2,.cls-6{stroke-linecap:round;}.cls-2{stroke-dasharray:9.8 9.8;}.cls-3{fill:#fff;}.cls-4{fill:#82baff;}.cls-5,.cls-6{stroke-linejoin:round;}.cls-6{fill:#ffc3b8;}.cls-7{fill:#30302d;}</style></defs><g id="Layer_2" data-name="Layer 2"><g id="Layer_1-2" data-name="Layer 1"><polyline class="cls-1" points="36.57 1.5 2.12 1.5 2.12 135.12 36.57 135.12"/><polyline class="cls-1" points="164.79 1.5 199.24 1.5 199.24 135.12 164.79 135.12"/><circle class="cls-2" cx="100.68" cy="68.31" r="59.28"/><path class="cls-3" d="M100.44,50.68,88.54,94a12.85,12.85,0,0,1-24.78-6.81l11.9-43.33Z"/><path class="cls-3" d="M86.54,25.46h5.83a2.4,2.4,0,0,1,2.4,2.4V56.47a2.39,2.39,0,0,1-2.39,2.39H86.54a2.4,2.4,0,0,1-2.4-2.4V27.85a2.4,2.4,0,0,1,2.4-2.4Z" transform="translate(25.11 117.25) rotate(-74.64)"/><rect class="cls-4" x="68.99" y="51.54" width="9.81" height="34.57" transform="matrix(0.96, 0.26, -0.26, 0.96, 20.87, -17.11)"/><line class="cls-1" x1="72.18" y1="56.53" x2="78.34" y2="58.22"/><line class="cls-1" x1="66.14" y1="78.53" x2="72.3" y2="80.22"/><line class="cls-1" x1="69.16" y1="67.53" x2="75.32" y2="69.22"/><line class="cls-5" x1="101.38" y1="42.59" x2="99.99" y2="47.65"/><line class="cls-5" x1="90.15" y1="39.63" x2="88.76" y2="44.69"/><line class="cls-5" x1="79.02" y1="36.45" x2="77.63" y2="41.51"/><line class="cls-1" x1="141.5" y1="82.99" x2="131.52" y2="50.1"/><rect class="cls-3" x="124.96" y="31.52" width="7.62" height="19.04" rx="3.81" transform="translate(-6.37 39.18) rotate(-16.89)"/><line class="cls-1" x1="101.61" y1="110.4" x2="114.65" y2="78.6"/><rect class="cls-3" x="114.44" y="60.31" width="7.62" height="19.04" rx="3.81" transform="translate(35.34 -39.64) rotate(22.3)"/><polygon class="cls-6" points="205.28 210.65 191.49 193.97 191.49 203.41 139.03 203.41 139.03 217.88 191.49 217.88 191.49 227.33 205.28 210.65"/><path class="cls-7" d="M16.14,185H11.92v-32.5H.45V148.8H27.62v3.74H16.14Z"/><path class="cls-7" d="M54.19,185H34V148.8h20.2v3.74h-16v11.68h15v3.72h-15v13.34h16Z"/><path class="cls-7" d="M83.59,175.4a8.89,8.89,0,0,1-3.47,7.46q-3.48,2.69-9.42,2.68-6.45,0-9.92-1.66v-4.07a26.88,26.88,0,0,0,10.07,2c2.8,0,4.92-.54,6.34-1.6a5.25,5.25,0,0,0,2.13-4.45,5.75,5.75,0,0,0-.75-3.09A7.14,7.14,0,0,0,76,170.49a35.3,35.3,0,0,0-5.39-2.3q-5.06-1.81-7.23-4.29a9.46,9.46,0,0,1-2.17-6.47,8,8,0,0,1,3.15-6.67,13.09,13.09,0,0,1,8.33-2.48,24.57,24.57,0,0,1,9.94,2l-1.31,3.67a22.57,22.57,0,0,0-8.73-1.88,8.44,8.44,0,0,0-5.23,1.44,4.7,4.7,0,0,0-1.88,4,6.13,6.13,0,0,0,.69,3.08,6.52,6.52,0,0,0,2.34,2.21,29,29,0,0,0,5,2.22q5.7,2,7.84,4.36A8.6,8.6,0,0,1,83.59,175.4Z"/><path class="cls-7" d="M103.07,185H98.86v-32.5H87.38V148.8h27.17v3.74H103.07Z"/><path class="cls-7" d="M120.92,185V148.8h4.21V185Z"/><path class="cls-7" d="M164.3,185h-4.81l-19.81-30.41h-.2c.26,3.57.4,6.84.4,9.81V185H136V148.8h4.76l19.75,30.29h.2c0-.44-.11-1.88-.22-4.3s-.16-4.15-.13-5.19V148.8h4Z"/><path class="cls-7" d="M191.12,166.05h12.32v17.63a40.77,40.77,0,0,1-5.85,1.39,45.11,45.11,0,0,1-6.89.47q-8.23,0-12.82-4.9t-4.59-13.72a20.72,20.72,0,0,1,2.27-9.9,15.34,15.34,0,0,1,6.53-6.5,21.27,21.27,0,0,1,10-2.24,27.33,27.33,0,0,1,10.81,2.13l-1.63,3.72a24.18,24.18,0,0,0-9.45-2.08q-6.62,0-10.34,3.94t-3.72,10.93q0,7.34,3.59,11.13t10.52,3.8a31.14,31.14,0,0,0,7.36-.87V169.82h-8.1Z"/><path class="cls-7" d="M27.77,229l-4.52-11.52H8.73L4.26,229H0l14.33-36.39h3.54L32.13,229Zm-5.83-15.32-4.21-11.23q-.82-2.13-1.69-5.23a45.45,45.45,0,0,1-1.56,5.23l-4.27,11.23Z"/><path class="cls-7" d="M42.24,214V229H38V192.8H48q6.66,0,9.85,2.55T61,203q0,7.19-7.29,9.72L63.56,229h-5L49.8,214Zm0-3.62H48q4.45,0,6.54-1.77a6.6,6.6,0,0,0,2.08-5.32c0-2.39-.7-4.12-2.12-5.18s-3.68-1.59-6.8-1.59H42.24Z"/><path class="cls-7" d="M90.53,229H70.33V192.8h20.2v3.74h-16v11.68h15v3.72h-15v13.34h16Z"/><path class="cls-7" d="M122.26,229l-4.51-11.52H103.22L98.76,229H94.49l14.33-36.39h3.55L126.62,229Zm-5.83-15.32-4.21-11.23q-.82-2.13-1.69-5.23a45.45,45.45,0,0,1-1.56,5.23l-4.26,11.23Z"/></g></g></svg>