<svg xmlns="http://www.w3.org/2000/svg" viewBox="0 0 243.51 223"><defs><style>.cls-1{fill:#fff;}.cls-1,.cls-2,.cls-3,.cls-4,.cls-5{stroke:#30302d;stroke-width:3px;}.cls-1,.cls-2,.cls-3{stroke-miterlimit:10;}.cls-2,.cls-5{fill:none;}.cls-3{fill:#82baff;}.cls-4{fill:#ffc3b8;}.cls-4,.cls-5{stroke-linecap:round;stroke-linejoin:round;}</style></defs><g id="Layer_2" data-name="Layer 2"><g id="Layer_1-2" data-name="Layer 1"><path class="cls-1" d="M228.36,101.17a114.29,114.29,0,0,1-226.65,0Z"/><path class="cls-2" d="M38.06,157.36a104.86,104.86,0,0,1-24.9-46.64"/><path class="cls-1" d="M164.87,221.5H65.2l6.34-29.43a114.78,114.78,0,0,0,87,0Z"/><polygon class="cls-3" points="116.11 42.27 94.12 42.27 94.12 20.28 75.5 20.28 75.5 42.27 53.51 42.27 53.51 60.88 75.5 60.88 75.5 82.87 94.12 82.87 94.12 60.88 116.11 60.88 116.11 42.27"/><path class="cls-2" d="M225.49,10A28.55,28.55,0,0,1,242,32.8"/><path class="cls-1" d="M232.66,36a18.74,18.74,0,0,1-2.39,9.17l-31.07,56H170l25.9-71.65A19,19,0,0,1,232.66,36Z"/><line class="cls-2" x1="191.23" y1="70.38" x2="204.83" y2="32.77"/><circle class="cls-1" cx="117.68" cy="10.01" r="8.51"/><circle class="cls-1" cx="117.68" cy="82.57" r="4.81"/><circle class="cls-1" cx="35.66" cy="74.2" r="5.78"/><circle class="cls-1" cx="52.08" cy="25.17" r="4.9"/><path class="cls-4" d="M112.89,184.56s-1.25-25.66,13.71-43.46,40.46-21,40.46-21,1.25,25.67-13.71,43.47S112.89,184.56,112.89,184.56Z"/><path class="cls-4" d="M110.88,184.31s-19.17-4.76-29-19.72-6.49-34.43-6.49-34.43,19.17,4.77,29,19.72S110.88,184.31,110.88,184.31Z"/><line class="cls-5" x1="112.62" y1="184.31" x2="141.27" y2="150.52"/><line class="cls-5" x1="110.88" y1="184.31" x2="94.2" y2="163.11"/></g></g></svg>