<svg xmlns="http://www.w3.org/2000/svg" viewBox="0 0 240.98 208.91"><defs><style>.cls-1{fill:#82baff;}.cls-1,.cls-2,.cls-3,.cls-4,.cls-5,.cls-6,.cls-7{stroke:#30302d;stroke-width:3px;}.cls-1,.cls-2,.cls-3,.cls-4,.cls-5,.cls-7{stroke-miterlimit:10;}.cls-2{fill:#fff;}.cls-3,.cls-4,.cls-6,.cls-7{fill:none;}.cls-3{stroke-dasharray:14;}.cls-4{stroke-dasharray:12;}.cls-5{fill:#ffc3b8;}.cls-6{stroke-linecap:round;stroke-linejoin:round;}</style></defs><g id="Layer_2" data-name="Layer 2"><g id="Layer_1-2" data-name="Layer 1"><path class="cls-1" d="M205.3,32.36c-.09.13-.18.24-.28.37C189.5,52.42,79.13,80.66,79.13,80.66S39.46,93.72,6.26,88.88a2.53,2.53,0,0,1-1.58-4.24,80.63,80.63,0,0,1,8.11-7.45A133.43,133.43,0,0,1,29.26,66,268.61,268.61,0,0,1,64.71,49a536.79,536.79,0,0,1,51.58-17.4c13.72-3.93,26-7,35-9.07a96.36,96.36,0,0,1,39.76-1c1.18.23,2.35.47,3.47.74C202.85,24.25,209,27.38,205.3,32.36Z"/><path class="cls-2" d="M116.29,31.58A536.79,536.79,0,0,0,64.71,49L31,18.33A9.67,9.67,0,0,1,33.12,2.58a9.58,9.58,0,0,1,7.94-.41Z"/><path class="cls-2" d="M29.26,66A133.43,133.43,0,0,0,12.79,77.19L11.31,58.67a2.9,2.9,0,0,1,4.6-2.56Z"/><path class="cls-2" d="M205.3,32.36c-.09.13-.18.24-.28.37H173.85a2.55,2.55,0,0,1-2.36-1.56h0a2.56,2.56,0,0,1,1.73-3.49l21.31-5.41C202.85,24.25,209,27.38,205.3,32.36Z"/><path class="cls-3" d="M18.27,126.09A104.39,104.39,0,0,1,1.4,97"/><path class="cls-3" d="M68.39,160a104.09,104.09,0,0,1-18.12-7.59"/><path class="cls-4" d="M191.42,124.49a105.79,105.79,0,0,1-28,26.77"/><path class="cls-4" d="M209.09,42a105.65,105.65,0,0,1,2.12,21.12c0,.31,0,.63,0,.94"/><path class="cls-5" d="M121.73,114a46.7,46.7,0,1,0,46.7,46.7A46.7,46.7,0,0,0,121.73,114Zm-38.57,46.7a38.58,38.58,0,0,1,61.77-30.81l-54,54A38.4,38.4,0,0,1,83.16,160.71Zm38.56,38.56a38.42,38.42,0,0,1-23.2-7.76l54-54a38.57,38.57,0,0,1-30.81,61.77Z"/><path class="cls-2" d="M55.49,139.76a4.49,4.49,0,0,1-2.87,1.31,19.13,19.13,0,0,1-1.78,5,5.32,5.32,0,0,1-.57,6.39l-.18.19a5.31,5.31,0,0,1-6.31.89,18.85,18.85,0,0,1-4.62,2,6.45,6.45,0,0,1-11,4,6.51,6.51,0,0,1-1.87-4.81,19.26,19.26,0,0,1-5.23-3.36,4.54,4.54,0,0,1-5.52-7.12,3.75,3.75,0,0,1,.44-.37,19,19,0,0,1-1.18-5.58,4.55,4.55,0,1,1,1.58-8.82,18.85,18.85,0,0,1,1.88-3.32c.2-.28.4-.56.62-.83A5.3,5.3,0,0,1,27,118.44a5.2,5.2,0,0,1,.53.63,19.69,19.69,0,0,1,4.52-1,6.22,6.22,0,0,1,12.08,2.85q.84.54,1.65,1.17A4.54,4.54,0,0,1,51.22,129,18.93,18.93,0,0,1,52.34,132a4.49,4.49,0,0,1,3.15,1.33A4.55,4.55,0,0,1,55.49,139.76Z"/><line class="cls-6" x1="37.51" y1="128.9" x2="38" y2="132.25"/><line class="cls-6" x1="37.72" y1="147.81" x2="37.25" y2="144.3"/><line class="cls-6" x1="28.2" y1="142.5" x2="24.11" y2="142.27"/><line class="cls-6" x1="28.63" y1="132.27" x2="25.51" y2="130.62"/><line class="cls-6" x1="43.2" y1="138.93" x2="45.83" y2="137.24"/><path class="cls-2" d="M238.48,94.43a7,7,0,0,1-3.79,3,29.77,29.77,0,0,1-.82,8.06,8.17,8.17,0,0,1-7.77,13.78A28.92,28.92,0,0,1,220,124a9.92,9.92,0,0,1-19.52,3.54,29.73,29.73,0,0,1-9-3.06l0,0a7,7,0,0,1-10.89-8.57,6.53,6.53,0,0,1,.5-.72,29.61,29.61,0,0,1-3.83-7.9,7,7,0,1,1-.92-13.75,28.88,28.88,0,0,1,2.18-7.13A8.17,8.17,0,0,1,188,73.21a7.7,7.7,0,0,1,1,.74,29.89,29.89,0,0,1,6.37-3.19A9.56,9.56,0,0,1,209.85,63a9,9,0,0,1,1.35,1,9.52,9.52,0,0,1,3.25,6.51,29.44,29.44,0,0,1,2.9,1.13,7,7,0,0,1,10.73,8.22A29.78,29.78,0,0,1,230.89,84a7,7,0,0,1,7.59,10.43Z"/><line class="cls-6" x1="204.86" y1="69.9" x2="205.1" y2="75.09"/><line class="cls-6" x1="212.9" y1="86.09" x2="209.53" y2="90.06"/><line class="cls-6" x1="192.9" y1="101.47" x2="187.71" y2="101.12"/><line class="cls-6" x1="211.11" y1="125.55" x2="210.01" y2="120.22"/><line class="cls-6" x1="192.77" y1="114.38" x2="187.85" y2="118.32"/><line class="cls-6" x1="192.4" y1="87.3" x2="188.22" y2="83.82"/><line class="cls-6" x1="226.23" y1="110.8" x2="221.3" y2="108.49"/><line class="cls-6" x1="223.76" y1="94.17" x2="228.2" y2="92.3"/><line class="cls-6" x1="206.38" y1="105.38" x2="210.82" y2="103.52"/><circle class="cls-7" cx="54.41" cy="72.26" r="5.21"/><circle class="cls-7" cx="86.25" cy="61.7" r="5.21"/><circle class="cls-7" cx="118.09" cy="51.12" r="5.21"/><circle class="cls-7" cx="149.92" cy="42.9" r="5.21"/></g></g></svg>