<svg xmlns="http://www.w3.org/2000/svg" viewBox="0 0 233 233"><defs><style>.cls-1,.cls-3,.cls-4,.cls-5{fill:none;}.cls-1,.cls-2,.cls-3,.cls-4,.cls-5,.cls-6{stroke:#30302d;stroke-miterlimit:10;stroke-width:3px;}.cls-2{fill:#82baff;}.cls-3,.cls-4,.cls-5{stroke-linecap:round;}.cls-4{stroke-dasharray:10.29 10.29;}.cls-5{stroke-dasharray:9.51 9.51;}.cls-6{fill:#ffc3b8;}</style></defs><g id="Layer_2" data-name="Layer 2"><g id="Layer_1-2" data-name="Layer 1"><path class="cls-1" d="M172.58,79.3c.41-.17.83-.32,1.25-.47,19.24-6.7,35.11,13.31,26.93,32-11.7,26.7-39.9,38.65-49.63,39"/><path class="cls-2" d="M160.44,138.5c-9.31,17-24.88,29.73-44.11,29.71-19,0-32.58-14-43.13-29.71C62.78,123,59.82,79.83,59.82,79.83s-.13-.77.9-.48c14.19,4.34,30.48,5.32,41.3-4.79.55-.51,1.1-1,1.67-1.59A18.18,18.18,0,0,1,129,73c.56.54,1.12,1.07,1.67,1.58,10.82,10.11,27.11,9.13,41.31,4.79.38-.11.89,0,.89.48S169.41,122.12,160.44,138.5Z"/><path class="cls-1" d="M60.42,79.3c-.41-.17-.83-.32-1.25-.47-19.24-6.7-35.11,13.31-26.93,32,11.7,26.7,39.89,38.65,49.63,39"/><path class="cls-1" d="M146.12,127.45h0a83,83,0,0,1-64.13,0h0"/><path class="cls-1" d="M154.24,102.53h0a164.86,164.86,0,0,1-80.37,0h0"/><path class="cls-3" d="M157.69,40.46c-1.43-.78-2.89-1.51-4.37-2.21"/><path class="cls-4" d="M143.77,34.43A86.58,86.58,0,0,0,53.88,56.88"/><path class="cls-3" d="M50.45,60.71c-1.06,1.25-2.08,2.52-3.06,3.83"/><path class="cls-3" d="M81.87,195.75c1.5.65,3,1.27,4.55,1.84"/><path class="cls-5" d="M95.5,200.39a86.6,86.6,0,0,0,94.66-38.59"/><path class="cls-3" d="M192.54,157.68q1.17-2.15,2.22-4.38"/><path class="cls-6" d="M203.56,41.37A115,115,0,1,0,29.44,191.64a116.57,116.57,0,0,0,11.75,11.77,115,115,0,0,0,162.37-162ZM38.62,182.48a102.07,102.07,0,0,1,144-143.72Zm77.88,36.09a101.63,101.63,0,0,1-66.13-24.32l144-143.73a102.08,102.08,0,0,1-77.89,168Z"/></g></g></svg>