<svg xmlns="http://www.w3.org/2000/svg" viewBox="0 0 221.32 233"><defs><style>.cls-1{fill:#ffc3b8;}.cls-1,.cls-2,.cls-3,.cls-4,.cls-5,.cls-6{stroke:#30302d;stroke-width:3px;}.cls-1,.cls-5,.cls-6{stroke-miterlimit:10;}.cls-2,.cls-6{fill:none;}.cls-2,.cls-3,.cls-4{stroke-linecap:round;stroke-linejoin:round;}.cls-3,.cls-5{fill:#fff;}.cls-4{fill:#82baff;}</style></defs><g id="Layer_2" data-name="Layer 2"><g id="Layer_1-2" data-name="Layer 1"><path class="cls-1" d="M75.87,37.87h0c11.76,1,17.57,9.62,20,22.92,0,0,15.63,75.91-20.72,115.7h0c-5.14,6.28-60.65,57.23-72.77,24h0a17.46,17.46,0,0,1-.86-6.21C4,146.43,22.46,87.49,54,50.73,59.21,43.8,68.87,37.14,75.87,37.87Z"/><path class="cls-2" d="M64,91.09a34.14,34.14,0,0,0-28.16,23.84"/><path class="cls-2" d="M75.49,88c7.39,6.89,11.58,14.86,12,22.77s-3,15.73-9.69,22.36"/><path class="cls-2" d="M87.42,113.63A15.14,15.14,0,0,0,70.64,126.2"/><path class="cls-2" d="M57.05,92.26A11.49,11.49,0,0,0,41.9,86.88"/><path class="cls-2" d="M62.91,116.51c-7.12,0-14,3.49-19,8.53s-8.38,11.54-10.76,18.25a80.07,80.07,0,0,0-3.48,39.87"/><path class="cls-2" d="M35.73,137.84a22.87,22.87,0,0,1,12.13,29"/><path class="cls-2" d="M28.4,157.93c-5-.13-9.67,3.14-12.35,7.38s-3.64,9.33-4.08,14.33"/><path class="cls-2" d="M48.93,152.36A13.34,13.34,0,0,1,63,166.56"/><path class="cls-1" d="M145.45,37.87h0c-11.75,1-17.56,9.62-20,22.92,0,0-15.63,75.91,20.72,115.7h0c5.14,6.28,60.65,57.23,72.77,24h0a17.24,17.24,0,0,0,.86-6.21c-2.45-47.85-20.94-106.79-52.5-143.55C162.11,43.8,152.45,37.14,145.45,37.87Z"/><path class="cls-3" d="M157.39,120.41a122.47,122.47,0,0,0-5.66-21.06,80.8,80.8,0,0,0-9.68-18.46A52.32,52.32,0,0,0,128,67.12a34,34,0,0,0-8.44-3.93,29,29,0,0,0-8.93-1.39,29.37,29.37,0,0,0-8.94,1.38,33.42,33.42,0,0,0-8.43,3.93A52.07,52.07,0,0,0,79.2,80.88a80.65,80.65,0,0,0-9.69,18.46,121.91,121.91,0,0,0-5.65,21.07A70,70,0,0,1,71,75.8,54.52,54.52,0,0,1,86.67,57.49,42.27,42.27,0,0,1,97.9,51.63,41.29,41.29,0,0,1,104.23,50V1.5H117V50a42.33,42.33,0,0,1,6.32,1.58,42.87,42.87,0,0,1,11.23,5.86,54.21,54.21,0,0,1,15.7,18.31A69.79,69.79,0,0,1,157.39,120.41Z"/><path class="cls-2" d="M157.3,91.09a34.14,34.14,0,0,1,28.16,23.84"/><path class="cls-2" d="M145.83,88c-7.38,6.89-11.58,14.86-12,22.77s3,15.73,9.68,22.36"/><path class="cls-2" d="M133.9,113.63a15.14,15.14,0,0,1,16.78,12.57"/><path class="cls-2" d="M164.28,92.26a11.48,11.48,0,0,1,15.14-5.38"/><path class="cls-2" d="M158.52,116.15c7.12.15,13.88,3.8,18.79,8.95s8.12,11.72,10.35,18.49a80,80,0,0,1,2.6,39.93"/><path class="cls-2" d="M179.82,127.55c4.64-1.91,10.15-.51,14.16,2.51s6.73,7.42,8.91,11.94"/><path class="cls-2" d="M171.71,152.3a13.32,13.32,0,0,0-14.4,13.89"/><circle class="cls-4" cx="159.27" cy="186.75" r="44.75"/><path class="cls-5" d="M179.09,162a6.33,6.33,0,0,0-7.12.41,26.25,26.25,0,0,0-2.62-1,8.63,8.63,0,0,0-16-3.83,8.49,8.49,0,0,0-1.23,4.05,26.29,26.29,0,0,0-5.76,2.88,6.93,6.93,0,0,0-.93-.68,7.38,7.38,0,0,0-8.62,11.92,26.56,26.56,0,0,0-2,6.44,6.32,6.32,0,1,0,.83,12.42,26.52,26.52,0,0,0,3.47,7.14,6.3,6.3,0,0,0,9.38,8.39,26.22,26.22,0,0,0,8.19,2.78,9,9,0,0,0,17.63-3.19,26.63,26.63,0,0,0,5.55-4.26,7.38,7.38,0,0,0,7-12.44,26.5,26.5,0,0,0,.74-7.29,6.32,6.32,0,0,0-3.43-12.15,26.09,26.09,0,0,0-2.54-3.73A6.32,6.32,0,0,0,179.09,162Z"/><line class="cls-2" x1="160.68" y1="160.86" x2="160.9" y2="165.56"/><line class="cls-2" x1="167.95" y1="175.49" x2="164.9" y2="179.08"/><line class="cls-2" x1="149.88" y1="189.39" x2="145.19" y2="189.07"/><line class="cls-2" x1="166.33" y1="211.14" x2="165.34" y2="206.32"/><line class="cls-2" x1="149.76" y1="201.05" x2="145.32" y2="204.6"/><line class="cls-2" x1="149.43" y1="176.58" x2="145.65" y2="173.44"/><line class="cls-2" x1="179.98" y1="197.81" x2="175.54" y2="195.73"/><line class="cls-2" x1="177.76" y1="182.79" x2="181.77" y2="181.1"/><line class="cls-2" x1="162.06" y1="192.92" x2="166.06" y2="191.24"/><line class="cls-6" x1="52.64" y1="37.95" x2="39.94" y2="31.24"/><line class="cls-6" x1="76.16" y1="28.79" x2="79.2" y2="14.89"/><line class="cls-6" x1="61.96" y1="29.74" x2="56.34" y2="15.64"/><line class="cls-6" x1="179.52" y1="31.24" x2="166.82" y2="37.95"/><line class="cls-6" x1="140.26" y1="14.89" x2="143.3" y2="28.79"/><line class="cls-6" x1="163.12" y1="15.64" x2="157.49" y2="29.74"/></g></g></svg>