<svg xmlns="http://www.w3.org/2000/svg" viewBox="0 0 223 233"><defs><style>.cls-1{fill:#fff;}.cls-1,.cls-2,.cls-3,.cls-4,.cls-5{stroke:#30302d;stroke-width:3px;}.cls-1,.cls-2,.cls-3,.cls-4{stroke-miterlimit:10;}.cls-2{fill:#82baff;}.cls-3{fill:#ffc3b8;}.cls-4,.cls-5{fill:none;}.cls-5{stroke-linecap:round;stroke-linejoin:round;}</style></defs><g id="Layer_2" data-name="Layer 2"><g id="Layer_1-2" data-name="Layer 1"><path class="cls-1" d="M162.61,124.73a11.88,11.88,0,0,1-4.31,9.16c-2.16,1.79-7.48,6.17-9.57,7.88a13.22,13.22,0,0,0-4.47,7.35l-2,9.14a24.39,24.39,0,0,1-24.67,19.11c-7.46,12.17-12.15,25-13.51,38.75a1.46,1.46,0,0,1-1.89,1.26c-24.26-7.51-46.63-7.79-67-.34a1.47,1.47,0,0,1-1.94-1.62c2.74-16.48,7.8-32.18,16.2-46.79h0a61,61,0,0,0,7.14,1.62c7.65,1.24,13.12-8.51,5.18-15.58-6.35-5.88-14.11-12.81-17.2-21a40.69,40.69,0,0,1-3.34-17.78,15.85,15.85,0,0,1,23.65-11.72c4.22,3.46,8.87,7.49,14.38,4.09a9.27,9.27,0,0,0,4.69-8.06c0-.24,0-.5,0-.79,0-1.44,0-3.34,0-5.29,0-.48,0-1,0-1.44a28,28,0,0,1,.43-5.25,8.58,8.58,0,0,1,.31-1.15,16.5,16.5,0,0,1,19.43-11.21l9.21,2.12L132,81.48l1.76.41a33.77,33.77,0,0,0,14.77.07,37.21,37.21,0,0,0,11.13-4.35,17.32,17.32,0,0,0-1.83,1.18h0c-8.42,6.15-10.87,18.77-4.9,27.51l3.52,5.37,4.28,6.56a12.11,12.11,0,0,1,1.91,6.49Z"/><path class="cls-1" d="M162.62,124.73a11.91,11.91,0,0,1-4.31,9.16c-2.16,1.79-7.49,6.17-9.57,7.88a13.17,13.17,0,0,0-4.47,7.35l-2,9.14A24.38,24.38,0,0,1,115,177.13l-7.32-1c-11.36-5.39-21.25-12.14-26.85-22.92a.51.51,0,0,1-.09-.18,50.78,50.78,0,0,1-2.16-5.09c-.11-.29-.22-.59-.31-.89a.67.67,0,0,1-.06-.15,50.25,50.25,0,0,1-1.59-26.2l.33-1.57s0-.06,0-.08l.65-3.07c2,.49,4.18,1,6.51,1.46a245.35,245.35,0,0,0,77.75,3.32A11.66,11.66,0,0,1,162.62,124.73Z"/><path class="cls-2" d="M159.77,77.55c-15.37,10.93-39.45.51-55.69-2.5A16.5,16.5,0,0,0,84.65,86.26c-1.08,3-.65,10.68-.72,13.92a9.27,9.27,0,0,1-4.69,8.06c-5.51,3.4-10.16-.63-14.37-4.09a15.86,15.86,0,0,0-23.66,11.72,40.69,40.69,0,0,0,3.34,17.78c3.09,8.21,10.85,15.14,17.2,21,7.94,7.07,2.47,16.82-5.18,15.58-12.94-2.13-24.83-8.21-33.12-18.46C4.47,130.47-1.43,103.57,2.8,78.43A95.53,95.53,0,0,1,6.09,65c11.3-35,42.6-63.5,85.16-63.45,35.71-.44,67.43,19.4,82.1,49.34C179.46,63.34,168.33,72.6,159.77,77.55Z"/><path class="cls-3" d="M153.46,64.71c-16.29-3-34.11-4.2-52.91-4.2A14,14,0,0,0,86.82,71.64l-9.17,44.29-1,4.72a50.23,50.23,0,0,0,2,27.24c8.52,25.92,34.81,34.86,34.81,34.86,15.85,5.49,27.85,5.21,36.74-5.36,14.9-17.74,22.71-37.95,26.44-58.85a132.35,132.35,0,0,0,2.08-23.31A30.94,30.94,0,0,0,153.46,64.71ZM145.8,171.55a20.59,20.59,0,0,1-16.56,8.19c-10.12,0-34.3-10.08-44.36-34.12A43.36,43.36,0,0,1,83.2,122l1-4.62L93.35,73a7.36,7.36,0,0,1,7.2-5.81c19,0,35.57,1.25,50,3.78A26.08,26.08,0,0,1,172,97.06a123.64,123.64,0,0,1-2.36,22.62C166,138.12,158.07,155.3,145.8,171.55Z"/><path class="cls-3" d="M84.76,81.85,81.85,95.4l-79-17A95.53,95.53,0,0,1,6.09,65Z"/><path class="cls-4" d="M183.93,97.22a17.4,17.4,0,0,0,12.59-7.94"/><path class="cls-4" d="M145.07,191a19.08,19.08,0,0,1,13.25,9.19"/><path class="cls-4" d="M174.68,147.57a76.57,76.57,0,0,1,11.47-1.75"/><path class="cls-1" d="M179.55,208a2.78,2.78,0,0,0-3.09-.58c-.33-.26-.67-.5-1-.72a3.81,3.81,0,0,0-6.44-3.34,3.64,3.64,0,0,0-1,1.6,11.54,11.54,0,0,0-2.77.61,3.9,3.9,0,0,0-.33-.38,3.25,3.25,0,0,0-5,4.18,11.44,11.44,0,0,0-1.53,2.54,2.79,2.79,0,0,0-2.94,4.59,2.86,2.86,0,0,0,2,.82,11.93,11.93,0,0,0,.72,3.42,1.86,1.86,0,0,0-.26.23,2.78,2.78,0,0,0,3.38,4.36,11.62,11.62,0,0,0,3.21,2.06,3.95,3.95,0,0,0,7.88.52,11.62,11.62,0,0,0,2.83-1.23,3.26,3.26,0,0,0,4.33-4.58,11.65,11.65,0,0,0,1.09-3,2.78,2.78,0,0,0-.17-5.56,10.79,10.79,0,0,0-.69-1.87A2.79,2.79,0,0,0,179.55,208Z"/><line class="cls-5" x1="171.41" y1="211.6" x2="171.71" y2="213.65"/><line class="cls-5" x1="171.54" y1="223.19" x2="171.25" y2="221.04"/><line class="cls-5" x1="165.7" y1="219.94" x2="163.19" y2="219.79"/><line class="cls-5" x1="165.97" y1="213.67" x2="164.05" y2="212.65"/><line class="cls-5" x1="174.9" y1="217.75" x2="176.51" y2="216.71"/><path class="cls-1" d="M216.46,63a2.79,2.79,0,0,0-3.09-.59,11.5,11.5,0,0,0-1-.71,3.81,3.81,0,0,0-6.44-3.35,3.64,3.64,0,0,0-1,1.6,11.56,11.56,0,0,0-2.77.62,3.09,3.09,0,0,0-.33-.39,3.26,3.26,0,0,0-5,4.18,12.07,12.07,0,0,0-1.53,2.55,2.75,2.75,0,0,0-2.93.64,2.79,2.79,0,0,0,2,4.76,11.56,11.56,0,0,0,.73,3.42,3,3,0,0,0-.27.23,2.78,2.78,0,0,0,3.39,4.36,11.46,11.46,0,0,0,3.2,2.07,4,4,0,0,0,6.74,3,4,4,0,0,0,1.15-2.44,11.55,11.55,0,0,0,2.82-1.23,3.25,3.25,0,0,0,4.33-4.58,11.58,11.58,0,0,0,1.09-3,2.79,2.79,0,0,0-.17-5.57,10.79,10.79,0,0,0-.69-1.87A2.77,2.77,0,0,0,216.46,63Z"/><line class="cls-5" x1="208.32" y1="66.61" x2="208.62" y2="68.66"/><line class="cls-5" x1="208.45" y1="78.2" x2="208.16" y2="76.06"/><line class="cls-5" x1="202.61" y1="74.95" x2="200.11" y2="74.81"/><line class="cls-5" x1="202.88" y1="68.68" x2="200.96" y2="67.67"/><line class="cls-5" x1="211.81" y1="72.76" x2="213.42" y2="71.73"/><path class="cls-1" d="M221.5,142.05a3.26,3.26,0,0,0-2.07-3.05,13.34,13.34,0,0,0-.25-1.43,4.47,4.47,0,0,0-4.69-7.6,14,14,0,0,0-2.81-1.79,3.82,3.82,0,0,0-7.54-1.24,13.69,13.69,0,0,0-3.39.84,3.27,3.27,0,1,0-5.29,3.68,13.58,13.58,0,0,0-2.24,3.44,2.83,2.83,0,0,0-.41,0,3.27,3.27,0,0,0-.82,6.43,13.88,13.88,0,0,0,.95,4.38,4.64,4.64,0,0,0,6.12,7,13.44,13.44,0,0,0,3.36,1.32,3.82,3.82,0,0,0,7.4-.2,13.81,13.81,0,0,0,3.43-1.61,3.28,3.28,0,0,0,4.48-4.77,13.17,13.17,0,0,0,1-2.12A3.26,3.26,0,0,0,221.5,142.05Z"/><line class="cls-5" x1="211.76" y1="138.27" x2="210.3" y2="140.23"/><line class="cls-5" x1="202.24" y1="148.01" x2="203.79" y2="145.98"/><line class="cls-5" x1="200.1" y1="140.46" x2="198.14" y2="138.25"/><line class="cls-5" x1="205.53" y1="135.47" x2="204.78" y2="133.04"/><line class="cls-5" x1="209.55" y1="146.27" x2="211.75" y2="146.76"/></g></g></svg>