<svg xmlns="http://www.w3.org/2000/svg" viewBox="0 0 190.22 232.74"><defs><style>.cls-1{fill:#fff;}.cls-1,.cls-2,.cls-3,.cls-4,.cls-5{stroke:#30302d;stroke-width:3px;}.cls-1,.cls-2,.cls-3,.cls-4{stroke-miterlimit:10;}.cls-2{fill:#82baff;}.cls-3,.cls-5{fill:none;}.cls-4{fill:#ffc3b8;}.cls-5{stroke-linecap:round;stroke-linejoin:round;}</style></defs><g id="Layer_2" data-name="Layer 2"><g id="Layer_1-2" data-name="Layer 1"><path class="cls-1" d="M57.08,53.66H36A8.61,8.61,0,0,0,27.47,61l-1.34,9.06H66.94L65.61,61A8.63,8.63,0,0,0,57.08,53.66Z"/><rect class="cls-1" x="40.95" y="32.94" width="11.16" height="20.72"/><path class="cls-2" d="M103.31,14.27,99.69,23.6,66.94,27.54c0,3.35-2.72,5.4-6.07,5.4H35.09a4.52,4.52,0,0,1-4.52-4.53V24.18a9.9,9.9,0,0,1,9.9-9.91Z"/><line class="cls-3" x1="115.18" y1="18.76" x2="132.63" y2="18.76"/><line class="cls-3" x1="112.6" y1="11.07" x2="127.01" y2="1.24"/><line class="cls-3" x1="113.38" y1="25.92" x2="128.31" y2="34.94"/><path class="cls-1" d="M90.29,93.44V207.89a23.36,23.36,0,0,1-23.35,23.35H24.85A23.36,23.36,0,0,1,1.5,207.89V93.44A23.36,23.36,0,0,1,24.85,70.08H66.94A23.36,23.36,0,0,1,90.29,93.44Z"/><rect class="cls-2" x="1.5" y="106.78" width="88.79" height="87.76"/><path class="cls-1" d="M164.58,136.16a9.46,9.46,0,0,0-7.75-7.35,39.42,39.42,0,0,0-1.58-3.91,13,13,0,0,0-17.95-18.62,39.75,39.75,0,0,0-9.05-3.33,12.36,12.36,0,0,0-.22-1.7,11.06,11.06,0,0,0-21.87,2.81,40.27,40.27,0,0,0-9.07,4.46,9.48,9.48,0,1,0-12.71,13.67,40,40,0,0,0-4.24,11.11c-.39,0-.78.09-1.18.17a9.46,9.46,0,0,0,1.65,18.71A39.65,39.65,0,0,0,86,164a13.44,13.44,0,0,0,21.59,16,39.31,39.31,0,0,0,10.35,1.69,11.06,11.06,0,0,0,20.8-5.12,39.7,39.7,0,0,0,8.72-6.67,9.48,9.48,0,0,0,13.78-10.34,9.5,9.5,0,0,0-4-5.89,39.52,39.52,0,0,0,1.46-6.61A9.46,9.46,0,0,0,164.58,136.16Z"/><path class="cls-3" d="M151.7,91.94,66.66,177a60.73,60.73,0,0,1,85-85.05Z"/><path class="cls-3" d="M175.89,140.45A60.74,60.74,0,0,1,78.63,189l85-85.05A60.51,60.51,0,0,1,175.89,140.45Z"/><path class="cls-4" d="M115.18,66.92a73.54,73.54,0,1,0,73.54,73.53A73.52,73.52,0,0,0,115.18,66.92ZM54.45,140.45A60.73,60.73,0,0,1,151.7,91.94L66.66,177A60.48,60.48,0,0,1,54.45,140.45Zm60.72,60.72A60.54,60.54,0,0,1,78.63,189l85-85.05a60.73,60.73,0,0,1-48.5,97.26Z"/><line class="cls-5" x1="112.17" y1="115.25" x2="113.08" y2="109.86"/><line class="cls-5" x1="89.76" y1="136.37" x2="97.41" y2="133.98"/><line class="cls-5" x1="113.56" y1="170.22" x2="122.73" y2="167.06"/><line class="cls-5" x1="139.26" y1="144.88" x2="142.86" y2="153.89"/></g></g></svg>