<svg xmlns="http://www.w3.org/2000/svg" viewBox="0 0 236.31 233.42"><defs><style>.cls-1{fill:#ffc3b8;}.cls-1,.cls-10,.cls-2,.cls-3,.cls-4,.cls-5,.cls-6,.cls-7,.cls-8{stroke:#30302d;}.cls-1,.cls-10,.cls-2,.cls-3,.cls-5,.cls-6,.cls-7,.cls-8{stroke-miterlimit:10;}.cls-1,.cls-10,.cls-2,.cls-6{stroke-width:3px;}.cls-2,.cls-8{fill:#fff;}.cls-10,.cls-3,.cls-7{fill:none;}.cls-3,.cls-4,.cls-5{stroke-width:2.72px;}.cls-4,.cls-5,.cls-6{fill:#82baff;}.cls-4{stroke-linecap:round;stroke-linejoin:round;}.cls-7{stroke-width:2.36px;}.cls-8{stroke-width:3.67px;}.cls-9{fill:#30302d;}</style></defs><g id="Layer_2" data-name="Layer 2"><g id="Layer_1-2" data-name="Layer 1"><path class="cls-1" d="M230.78,116.14A114.16,114.16,0,0,1,219.39,166a36,36,0,0,0-11.64-5.54,36.21,36.21,0,0,0-45.64,34.92,36,36,0,0,0,7.56,22.13,114.65,114.65,0,1,1,61.11-101.39Z"/><path class="cls-2" d="M217.89,116.14a101.33,101.33,0,0,1-10.14,44.34,36.21,36.21,0,0,0-45.64,34.92,36,36,0,0,0,1.61,10.7,101.76,101.76,0,1,1,54.17-90Z"/><path class="cls-3" d="M72.19,153.36a1.65,1.65,0,0,1-1.28,2.08,4,4,0,0,1-.63.06,6.88,6.88,0,0,1-5.37-3.28c-.92-1.47-1.34-3.27-2.54-4.53s-2.78-1.74-4.2-2.59a12.5,12.5,0,0,1-5.5-7.51,18,18,0,0,1,.2-9.43,10.52,10.52,0,0,1,3.58-5.89,8,8,0,0,1,8.08-.4,10.43,10.43,0,0,1,2.14,1.47,11.58,11.58,0,0,0,1.25.84A120.73,120.73,0,0,0,72.19,153.36Z"/><path class="cls-3" d="M159.75,153.66a1.35,1.35,0,0,0,1,1.71,4,4,0,0,0,1,.13,6.88,6.88,0,0,0,5.37-3.28c.91-1.47,1.34-3.27,2.54-4.53s2.78-1.74,4.2-2.59a12.5,12.5,0,0,0,5.5-7.51,18,18,0,0,0-.2-9.43,10.52,10.52,0,0,0-3.58-5.89,8,8,0,0,0-8.08-.4,10.43,10.43,0,0,0-2.14,1.47,11.58,11.58,0,0,1-1.25.84A120.65,120.65,0,0,1,159.75,153.66Z"/><path class="cls-4" d="M130.77,88.45A13,13,0,0,1,129,89.53a15.34,15.34,0,0,1-2.06.84c-6.51,2.11-14.27.06-21.47.94-8.7,1.08-17.67,2.83-24.9,7.71-7.06,4.76-12.77,16.88-12.6,25.16-3.3-6.55-6.26-16.88-7.38-24.11-1.67-10.82-1-22.89,3.31-33.17S77.77,47.85,88,42.51s22.74-6.64,33.38-2.71c8.74,3.22,16,10.08,19,18.52a25,25,0,0,1,.88,3.07A26.69,26.69,0,0,1,130.77,88.45Z"/><path class="cls-5" d="M164.1,124.18c0-1,.06-2.05,0-3.19v-.08c-.08-4.91-.75-10.81-2.07-13.72a13.44,13.44,0,0,0-8.8-7.33c-3.81-1-7.83-.2-11.76-.49-6.39-.47-11.07-3.79-14.62-9a15.34,15.34,0,0,0,2.06-.84,13,13,0,0,0,1.82-1.08,26.69,26.69,0,0,0,10.44-27.06,25,25,0,0,0-.88-3.07A27.49,27.49,0,0,1,157,59.62c10.75,4.43,17.8,15.83,18.53,27.44S171.9,115.56,164.1,124.18Z"/><path class="cls-6" d="M159,154.94c-.55,22.72-17.66,45.51-41.24,47.07q-.87.06-1.74.09c-1.15,0-2.3-.12-3.45-.23-23-2.4-39.61-23.23-39.88-45.62,0-.82,5.45-13.18,5.45-13.18,30.65,11.86,75.77,0,75.77,0Z"/><path class="cls-3" d="M69.65,79.54c10.4-26.21,39.5-38,60-23"/><path class="cls-7" d="M77.06,92.26c9.11-22.53,34.62-32.69,52.55-19.72"/><path class="cls-7" d="M147.63,64.33c17.27,5.88,23.11,19.9,20.62,39.79"/><path class="cls-7" d="M146.67,75.21a14.5,14.5,0,0,1,11.59,14.6"/><path class="cls-8" d="M234.47,195.4A36.22,36.22,0,1,1,219.39,166,36.18,36.18,0,0,1,234.47,195.4Z"/><polygon class="cls-9" points="192.99 214.81 173.26 195.08 178.92 189.42 192.99 203.49 217.66 178.83 223.31 184.49 192.99 214.81"/><line class="cls-10" x1="78.11" y1="143.07" x2="67.92" y2="124.18"/><line class="cls-10" x1="153.88" y1="143.07" x2="164.07" y2="124.18"/><path class="cls-10" d="M99.76,163a104.82,104.82,0,0,0,32.12,0"/><path class="cls-10" d="M97,175.85a78.56,78.56,0,0,0,37.67,0"/></g></g></svg>