<svg xmlns="http://www.w3.org/2000/svg" viewBox="0 0 233 190.86"><defs><style>.cls-1,.cls-4{fill:none;}.cls-1,.cls-2,.cls-3,.cls-4,.cls-5{stroke:#30302d;stroke-width:3px;}.cls-1,.cls-2,.cls-3{stroke-miterlimit:10;}.cls-2{fill:#82baff;}.cls-3{fill:#fff;}.cls-4,.cls-5{stroke-linecap:round;stroke-linejoin:round;}.cls-5{fill:#ffc3b8;}</style></defs><g id="Layer_2" data-name="Layer 2"><g id="Layer_1-2" data-name="Layer 1"><path class="cls-1" d="M231.5,152.11v17.77A19.5,19.5,0,0,1,212,189.36H184.31"/><path class="cls-1" d="M1.5,44.11V21A19.49,19.49,0,0,1,21,1.5h28"/><rect class="cls-2" x="11.24" y="11.24" width="210.53" height="168.38" rx="9.74"/><rect class="cls-3" x="42.04" y="-0.1" width="148.91" height="191.06" transform="translate(211.93 -21.07) rotate(90)"/><polyline class="cls-4" points="212.03 135.96 201.3 135.96 194.54 158.41 187.78 135.96 176.81 82.25 165.84 135.96 156.93 135.96 152.26 159.61 140.83 84.49 134.08 135.96 124.53 135.96 117.78 154.75 111.02 135.96 111.02 135.96 100.81 135.96 85.98 69.42 71.15 135.96 54.6 135.96 48.97 159.33 43.35 135.96 37.72 95.31 32.09 135.96 20.97 135.96"/><path class="cls-5" d="M74.72,49c0,14.2-20.16,21-20.16,21S34.4,63.24,34.4,49a10.08,10.08,0,1,1,20.16,0,10.08,10.08,0,1,1,20.16,0Z"/><rect class="cls-4" x="84.34" y="45.66" width="45.97" height="8.82"/><rect class="cls-4" x="152.63" y="45.66" width="45.97" height="8.82"/></g></g></svg>