<svg xmlns="http://www.w3.org/2000/svg" viewBox="0 0 236.06 232.15"><defs><style>.cls-1{fill:#fff;}.cls-1,.cls-2,.cls-3,.cls-4,.cls-5{stroke:#30302d;stroke-width:3px;}.cls-1,.cls-2,.cls-3,.cls-4{stroke-miterlimit:10;}.cls-2,.cls-5{fill:none;}.cls-3{fill:#82baff;}.cls-4{fill:#ffc3b8;}.cls-5{stroke-linecap:round;stroke-linejoin:round;}</style></defs><g id="Layer_2" data-name="Layer 2"><g id="Layer_1-2" data-name="Layer 1"><path class="cls-1" d="M36.88,230.13a1.57,1.57,0,0,1-1.94-1.68c1.92-18.35,7-35.32,17.39-50h0C40.92,175.21,32.86,170,24.8,160.63A96.31,96.31,0,0,1,96.58,1.51C134.4,1,168,22.05,183.51,53.74,190,67,178.19,76.78,169.14,82a21.61,21.61,0,0,0-10.57,15.61,22.46,22.46,0,0,0-.22,3.05,21.46,21.46,0,0,0,3.52,11.79l3.72,5.69,4.53,6.94a12.62,12.62,0,0,1-2.54,16.58l-6.73,5.54-3.4,2.8a13.91,13.91,0,0,0-4.73,7.78l-2.13,9.67A25.77,25.77,0,0,1,126,187.71a3.54,3.54,0,0,0-3.46,1.38c-7.76,11.52-10.48,25.1-12.31,39.81a1.57,1.57,0,0,1-1.92,1.34A153.42,153.42,0,0,0,36.88,230.13Z"/><path class="cls-2" d="M124.92,187.7A89.23,89.23,0,0,1,104,184.85"/><path class="cls-3" d="M169.14,82l-.11.06a37.48,37.48,0,0,1-27.43,4.54l-31.43-7.25a17.39,17.39,0,0,0-18.36,7.24h0a17.38,17.38,0,0,0-3,9.73V106A9.83,9.83,0,0,1,79,115.8h0a9.84,9.84,0,0,1-7.38-3.34h0a12.29,12.29,0,0,0-3-2.27c-10.32-6-23.67.56-25,12.41a9.6,9.6,0,0,0-.09,1.22h0a44.55,44.55,0,0,0,13.9,32.32l7.94,7.54c8.4,7.48,2.61,17.8-5.49,16.5-15.62-3-25.34-8.25-35.07-19.55A96.31,96.31,0,0,1,96.58,1.51C134.4,1,168,22.05,183.51,53.74,190,67,178.19,76.78,169.14,82Z"/><path class="cls-4" d="M172.15,132a12.63,12.63,0,0,1-4.57,9.71l-6.73,5.54-8.24-3.29a35.4,35.4,0,0,0-11-2.46c-.7,0-1.39-.07-2.1-.07a35.54,35.54,0,0,0-16.26,3.95l-22.31,11.51A1.21,1.21,0,0,1,99.44,155l20.4-25a34.14,34.14,0,0,1,26.42-12.53l1.19,0,18.14.67,4.53,6.94A12.6,12.6,0,0,1,172.15,132Z"/><line class="cls-2" x1="168.1" y1="147.08" x2="183.35" y2="193.96"/><rect class="cls-1" x="162.68" y="132.95" width="7.84" height="19.04" rx="3.92" transform="translate(-35.91 58.54) rotate(-18.02)"/><path class="cls-1" d="M201.65,82.49A4.1,4.1,0,0,0,198,85.28a15.11,15.11,0,0,0-1.77.4,5.58,5.58,0,0,0-10,3.71A5.45,5.45,0,0,0,187,92,16.78,16.78,0,0,0,185,95.63a4.54,4.54,0,0,0-.74,0,4.77,4.77,0,0,0-.33,9.5,16.53,16.53,0,0,0,1.26,4.17,4.09,4.09,0,0,0,2.09,7.71,4,4,0,0,0,2.83-1.34,17.22,17.22,0,0,0,4.43,2.59,4.34,4.34,0,0,0,0,.51,4.08,4.08,0,0,0,8.08.61A17.06,17.06,0,0,0,208,117.9a5.8,5.8,0,0,0,9.85-4.43,5.76,5.76,0,0,0-1.53-3.64,17.36,17.36,0,0,0,1.45-4.29,4.77,4.77,0,0,0-.72-9.21,17.48,17.48,0,0,0-2.23-4.18,4,4,0,0,0,.85-2.7,4.09,4.09,0,0,0-7.07-2.59,17.2,17.2,0,0,0-2.71-1.08A4.09,4.09,0,0,0,201.65,82.49Z"/><line class="cls-5" x1="191.91" y1="90.09" x2="194.95" y2="94.83"/><line class="cls-5" x1="209.26" y1="109.53" x2="206.07" y2="105.46"/><line class="cls-5" x1="200.19" y1="109.99" x2="199.95" y2="113.67"/><line class="cls-5" x1="193.43" y1="103.38" x2="190.44" y2="104.46"/><line class="cls-5" x1="207.57" y1="94.6" x2="209.16" y2="92.28"/><line class="cls-5" x1="202.01" y1="101.41" x2="200.69" y2="98.92"/><path class="cls-1" d="M133.59,214.41a3.68,3.68,0,0,0,3.11,2.74,14.36,14.36,0,0,0,.67,1.49,5,5,0,0,0,7.21,7,15.06,15.06,0,0,0,3.55,1.16,3.79,3.79,0,0,0,.11.66,4.29,4.29,0,0,0,8.43-1.4,15.65,15.65,0,0,0,3.45-1.85,3.67,3.67,0,1,0,4.73-5.48,15.71,15.71,0,0,0,1.48-4.36,3.54,3.54,0,0,0,.45-.08,3.67,3.67,0,0,0-.9-7.22,15,15,0,0,0-2.24-4.49,5.21,5.21,0,0,0-8.59-5.89,15.46,15.46,0,0,0-4-.51,4.29,4.29,0,0,0-8,2.28,15.34,15.34,0,0,0-3.28,2.7,3.67,3.67,0,0,0-5.19,4.2,3.65,3.65,0,0,0,1.64,2.23,16,16,0,0,0-.48,2.57A3.69,3.69,0,0,0,133.59,214.41Z"/><line class="cls-5" x1="145.24" y1="215.81" x2="146.28" y2="213.29"/><line class="cls-5" x1="152.88" y1="202.59" x2="151.77" y2="205.22"/><line class="cls-5" x1="157.31" y1="210.2" x2="160.05" y2="212.05"/><line class="cls-5" x1="152.79" y1="217.13" x2="154.28" y2="219.57"/><line class="cls-5" x1="145.42" y1="206.5" x2="142.9" y2="206.59"/><path class="cls-1" d="M204.29,149.11a4,4,0,0,0-1.61,4.19,16.42,16.42,0,0,0-1.27,1.23,5.44,5.44,0,0,0-6.35,8.2,5.31,5.31,0,0,0,2,1.75,17.16,17.16,0,0,0,.15,4.05,5.54,5.54,0,0,0-.62.36,4.65,4.65,0,0,0,4.6,8,16.23,16.23,0,0,0,3.18,2.81,4,4,0,1,0,7.34,2.75,16.79,16.79,0,0,0,5-.14,2.67,2.67,0,0,0,.25.43,4,4,0,0,0,7-3.63,16.48,16.48,0,0,0,3.72-4,5.64,5.64,0,0,0,2.75-10.94,16.61,16.61,0,0,0-1-4.29,4.65,4.65,0,0,0-5.32-7.26,16.79,16.79,0,0,0-4-2.31,4,4,0,0,0-7.86-1.19,15.79,15.79,0,0,0-2.8.49A4,4,0,0,0,204.29,149.11Z"/><line class="cls-5" x1="207.26" y1="161.47" x2="210.21" y2="161.57"/><line class="cls-5" x1="223.58" y1="164.26" x2="220.48" y2="164.12"/><line class="cls-5" x1="217.51" y1="171.63" x2="216.66" y2="175.11"/><line class="cls-5" x1="208.76" y1="169.64" x2="206.84" y2="172.07"/><line class="cls-5" x1="216.79" y1="158.15" x2="215.75" y2="155.61"/></g></g></svg>