<svg xmlns="http://www.w3.org/2000/svg" viewBox="0 0 234.73 213.44"><defs><style>.cls-1{fill:#82baff;}.cls-1,.cls-2,.cls-3,.cls-4,.cls-5{stroke:#30302d;stroke-width:3px;}.cls-1,.cls-2,.cls-4,.cls-5{stroke-miterlimit:10;}.cls-2{fill:#fff;}.cls-3,.cls-4{fill:none;}.cls-3{stroke-linecap:round;stroke-linejoin:round;}.cls-5{fill:#ffc3b8;}</style></defs><g id="Layer_2" data-name="Layer 2"><g id="Layer_1-2" data-name="Layer 1"><path class="cls-1" d="M162,102c0-10.91-19.75-41.8-19.75-41.8S122.45,91.13,122.45,102a19.75,19.75,0,0,0,39.5,0Z"/><path class="cls-2" d="M55.79,66.58a3.63,3.63,0,0,0-1.3,3.88c-.39.38-.75.77-1.1,1.18a5,5,0,0,0-5.45,7.73,5,5,0,0,0,1.9,1.52,15.7,15.7,0,0,0,.31,3.68,5.14,5.14,0,0,0-.55.35,4.24,4.24,0,0,0,4.52,7.14,15,15,0,0,0,3,2.42,3.64,3.64,0,0,0,5.41,4.6,3.68,3.68,0,0,0,1.4-2.4,15.12,15.12,0,0,0,4.54-.33c.08.13.16.26.25.38A3.63,3.63,0,0,0,75,93.13a15.19,15.19,0,0,0,3.22-3.78,5.14,5.14,0,0,0,2-10.08,15.21,15.21,0,0,0-1.09-3.87A4.24,4.24,0,0,0,74,69a15.4,15.4,0,0,0-3.73-1.94,3.58,3.58,0,0,0-.73-2.41,3.63,3.63,0,0,0-6.48,1.65,15.9,15.9,0,0,0-2.53.56A3.64,3.64,0,0,0,55.79,66.58Z"/><line class="cls-3" x1="59" y1="77.72" x2="61.7" y2="77.69"/><line class="cls-3" x1="73.99" y1="79.58" x2="71.16" y2="79.58"/><line class="cls-3" x1="68.76" y1="86.55" x2="68.14" y2="89.76"/><line class="cls-3" x1="60.72" y1="85.1" x2="59.07" y2="87.39"/><line class="cls-3" x1="67.55" y1="74.3" x2="66.5" y2="72.03"/><path class="cls-2" d="M216.69,72.91a3.31,3.31,0,0,0-2.87,2.43,13.74,13.74,0,0,0-1.43.4,4.55,4.55,0,0,0-8,3.46,4.45,4.45,0,0,0,.77,2.1,14.4,14.4,0,0,0-1.52,3,4,4,0,0,0-.6,0,3.89,3.89,0,0,0,.15,7.75,14,14,0,0,0,1.21,3.34,3.33,3.33,0,0,0,2.05,6.18,3.29,3.29,0,0,0,2.24-1.21,14.14,14.14,0,0,0,3.73,1.91,1.89,1.89,0,0,0,0,.41,3.33,3.33,0,0,0,6.6.15,14.06,14.06,0,0,0,4.33-1.43,4.73,4.73,0,0,0,6.41-6.94,13.75,13.75,0,0,0,1-3.55,3.89,3.89,0,0,0-1-7.47,14,14,0,0,0-2-3.3,3.27,3.27,0,0,0,.57-2.24,3.33,3.33,0,0,0-3.66-3,3.28,3.28,0,0,0-2.21,1.18,13.57,13.57,0,0,0-2.25-.77A3.33,3.33,0,0,0,216.69,72.91Z"/><line class="cls-3" x1="210.9" y1="83.18" x2="213.03" y2="84.44"/><line class="cls-3" x1="223.35" y1="92.76" x2="221.33" y2="94.98"/><line class="cls-3" x1="212.72" y1="93.79" x2="210.34" y2="94.8"/><line class="cls-3" x1="222.24" y1="84.57" x2="222.49" y2="82.29"/><path class="cls-2" d="M94.58,4A4.3,4.3,0,0,0,90.72,7a16.65,16.65,0,0,0-1.86.41A5.87,5.87,0,0,0,79.22,14a18.47,18.47,0,0,0-2.16,3.8,4.91,4.91,0,0,0-.77,0,5,5,0,0,0-.36,10,18.07,18.07,0,0,0,1.33,4.38,4.29,4.29,0,0,0,2.2,8.08,4.23,4.23,0,0,0,3-1.4,17.87,17.87,0,0,0,4.65,2.71,4.87,4.87,0,0,0,0,.54,4.28,4.28,0,0,0,8.47.65,18.43,18.43,0,0,0,5.67-1.53,6.08,6.08,0,0,0,8.73-8.47,17.82,17.82,0,0,0,1.52-4.5,5,5,0,0,0-.76-9.67,18.1,18.1,0,0,0-2.33-4.39,4.29,4.29,0,0,0-6.53-5.55A17.65,17.65,0,0,0,99,7.47,4.3,4.3,0,0,0,94.58,4Z"/><line class="cls-3" x1="90.27" y1="17.03" x2="92.92" y2="18.81"/><line class="cls-3" x1="103.64" y1="28.86" x2="100.89" y2="26.97"/><line class="cls-3" x1="93.9" y1="32.16" x2="91.14" y2="34.87"/><line class="cls-3" x1="87.01" y1="25.38" x2="83.88" y2="26.52"/><line class="cls-3" x1="100.89" y1="19.4" x2="101.38" y2="16.49"/><path class="cls-1" d="M114,45.78a33.74,33.74,0,0,1,11.72,13.88"/><path class="cls-2" d="M191.62,1.51a4.3,4.3,0,0,0-3.82,3,16.08,16.08,0,0,0-1.85.44,5.86,5.86,0,0,0-9.56,6.76,18.3,18.3,0,0,0-2.11,3.83,6.54,6.54,0,0,0-.77,0,5,5,0,0,0-.23,10,18,18,0,0,0,1.38,4.36,4.3,4.3,0,1,0,5.25,6.63,18.2,18.2,0,0,0,4.69,2.65,3.23,3.23,0,0,0,0,.54,4.29,4.29,0,0,0,8.49.53,17.79,17.79,0,0,0,5.64-1.6A6.08,6.08,0,0,0,207.35,30a18.38,18.38,0,0,0,1.46-4.52,5,5,0,0,0-.88-9.66,18.19,18.19,0,0,0-2.39-4.35,4.35,4.35,0,0,0,.86-2.85A4.3,4.3,0,0,0,198.94,6a19,19,0,0,0-2.86-1.1A4.29,4.29,0,0,0,191.62,1.51Z"/><line class="cls-3" x1="187.48" y1="14.57" x2="190.16" y2="16.31"/><line class="cls-3" x1="201" y1="26.22" x2="198.22" y2="24.37"/><line class="cls-3" x1="191.3" y1="29.65" x2="188.58" y2="32.4"/><line class="cls-3" x1="184.33" y1="22.96" x2="181.21" y2="24.13"/><line class="cls-3" x1="198.13" y1="16.81" x2="198.59" y2="13.89"/><path class="cls-1" d="M169.34,41.41a33.69,33.69,0,0,0-10.85,13.94"/><path class="cls-1" d="M190.6,92.87a37.37,37.37,0,0,0-19.17,9.54"/><path class="cls-1" d="M93.84,87.19a44.56,44.56,0,0,1,18.56,5.48"/><path class="cls-2" d="M33.76,143.66S77.91,128.78,81.46,128c6-1.24,12.27-2.54,18.23-2.54a29.15,29.15,0,0,1,12.91,2.7l4.23,2.14.07,0,35.29,17.83,39.2-21.86a11.34,11.34,0,0,1,4.8-1.08,11.49,11.49,0,0,1,8,3.33,11,11,0,0,1,2.8,4.55,11.45,11.45,0,0,1-3,11.79l-33.79,29.21c-10,9.42-22.55,13.8-39.55,13.8h0a165.25,165.25,0,0,1-21.45-1.71l-11.8-1.58a64.16,64.16,0,0,0-8.3-.55c-.64,0-1.4,0-2.2.08a62.33,62.33,0,0,0-15.76,3.13l-18.71,6.28Z"/><path class="cls-4" d="M97.11,153.58,142,167.86a11.52,11.52,0,0,0,3.47.54,11.4,11.4,0,0,0,11-8.58,11.41,11.41,0,0,0-3.8-11.58"/><polygon class="cls-5" points="1.98 145.91 34.59 133.12 56.23 200.78 29.43 211.5 1.98 145.91"/><circle class="cls-2" cx="26.13" cy="150.97" r="5.12"/></g></g></svg>