<svg xmlns="http://www.w3.org/2000/svg" viewBox="0 0 219.16 221.38"><defs><style>.cls-1{fill:#fff;}.cls-1,.cls-2,.cls-3,.cls-4{stroke:#30302d;stroke-miterlimit:10;stroke-width:3px;}.cls-2{fill:none;}.cls-3{fill:#82baff;}.cls-4{fill:#ffc3b8;}</style></defs><g id="Layer_2" data-name="Layer 2"><g id="Layer_1-2" data-name="Layer 1"><path class="cls-1" d="M74,49.51,68.66,54A11.65,11.65,0,0,1,67.2,67.2a11.21,11.21,0,0,1-1.58,1.51l4.92,7.67a.72.72,0,0,1-.79,1.09l-8.91-2.19a11.43,11.43,0,0,1-2.3,4.07A11.63,11.63,0,0,1,46.6,82.91l-6,6.91a.58.58,0,0,1-1-.34l-.43-6.91a11.56,11.56,0,0,1-7.5-2.86,11.74,11.74,0,0,1-1.7-1.84l-6.06,3.54c-.53.3-1.36-.41-1.15-1l2.6-7a12,12,0,0,1-1.78-1.27,11.62,11.62,0,0,1-3.64-11.62l-7.16-4.75A.84.84,0,0,1,13,54.29l7.64-1.76a11.63,11.63,0,0,1,8.48-14l-1.61-7.61a.41.41,0,0,1,.65-.42l5.38,3.8q.13-.18.3-.36a11.63,11.63,0,0,1,16.41-1.13,11.5,11.5,0,0,1,1.49,1.56,11.76,11.76,0,0,1,7.33-.71l5.6-4.9a.59.59,0,0,1,1,.51L64.94,37a11.62,11.62,0,0,1,2.72,11.2l6,.36A.52.52,0,0,1,74,49.51Z"/><path class="cls-2" d="M40,43.65l3.13-4.41a.41.41,0,0,1,.74.11l1.27,4.11"/><path class="cls-2" d="M52.5,47.16l5.41-.11a.42.42,0,0,1,.35.67l-2.55,3.46"/><path class="cls-2" d="M31.3,56.58l-4-3.67a.42.42,0,0,1,.21-.73l4.24-.73"/><path class="cls-2" d="M49.34,61.83l4.91,2.27a.42.42,0,0,1,0,.76l-3.81,2"/><path class="cls-2" d="M36.41,63.45l-3.28,7.29a.56.56,0,0,0,.73.74l9.16-4"/><line class="cls-2" x1="59.09" y1="33.66" x2="56.68" y2="35.77"/><line class="cls-2" x1="64.94" y1="37.02" x2="64.64" y2="40.35"/><line class="cls-2" x1="67.66" y1="48.22" x2="64.17" y2="48.02"/><line class="cls-2" x1="68.66" y1="54.01" x2="66.37" y2="55.95"/><line class="cls-2" x1="65.62" y1="68.71" x2="63.48" y2="65.38"/><line class="cls-2" x1="60.84" y1="75.28" x2="56.48" y2="74.21"/><line class="cls-2" x1="23.02" y1="51.98" x2="20.66" y2="52.53"/><line class="cls-2" x1="22.28" y1="62.13" x2="19.91" y2="60.56"/><line class="cls-2" x1="33.08" y1="76.04" x2="29.94" y2="77.87"/><line class="cls-2" x1="26.24" y1="70.98" x2="25.32" y2="73.45"/><line class="cls-2" x1="48.19" y1="81.09" x2="46.6" y2="82.91"/><line class="cls-2" x1="39.01" y1="80.56" x2="39.14" y2="82.57"/><line class="cls-2" x1="37.04" y1="36.77" x2="33.55" y2="34.3"/><line class="cls-2" x1="29.14" y1="38.53" x2="29.83" y2="41.82"/><path class="cls-3" d="M97.19,192.22l-2.64-.65a22,22,0,0,1-4.42,7.82,22.32,22.32,0,0,1-22.91,6.83L55.66,219.49a1.11,1.11,0,0,1-1.95-.66l-.82-13.26a22.22,22.22,0,0,1-14.4-5.5,22.54,22.54,0,0,1-3.27-3.52l-11.63,6.79c-1,.58-2.61-.78-2.21-1.88l5-13.4A22.3,22.3,0,0,1,16,163.31L2.23,154.19a1.61,1.61,0,0,1,.52-2.92l14.67-3.38A22.3,22.3,0,0,1,33.69,121L30.6,106.42a.8.8,0,0,1,1.25-.82l10.32,7.31c.19-.24.38-.47.58-.7A22.33,22.33,0,0,1,74.26,110a23,23,0,0,1,2.86,3,22.46,22.46,0,0,1,14.07-1.36l4.35-3.81v73.18A38.55,38.55,0,0,0,97.19,192.22Z"/><path class="cls-2" d="M54.52,130.86l6-8.48a.81.81,0,0,1,1.44.23l2.43,7.88"/><path class="cls-2" d="M72.27,153.85l-3.56-9.75a.81.81,0,0,1,1-1l7.86,2.48"/><path class="cls-2" d="M37.83,155.67l-7.63-7a.81.81,0,0,1,.42-1.39l8.13-1.39"/><path class="cls-2" d="M75.85,171.79l9.43,4.36a.81.81,0,0,1,0,1.46L78,181.43"/><path class="cls-2" d="M47.65,168.86l-6.3,14a1.06,1.06,0,0,0,1.39,1.41l17.6-7.65"/><line class="cls-2" x1="91.18" y1="111.68" x2="86.56" y2="115.73"/><line class="cls-2" x1="94.54" y1="191.57" x2="86.17" y2="189.52"/><line class="cls-2" x1="21.95" y1="146.85" x2="17.42" y2="147.9"/><line class="cls-2" x1="20.52" y1="166.33" x2="15.97" y2="163.31"/><line class="cls-2" x1="41.25" y1="193.03" x2="35.22" y2="196.55"/><line class="cls-2" x1="28.13" y1="183.32" x2="26.36" y2="188.07"/><line class="cls-2" x1="70.25" y1="202.74" x2="67.21" y2="206.22"/><line class="cls-2" x1="52.64" y1="201.71" x2="52.88" y2="205.57"/><line class="cls-2" x1="48.85" y1="117.65" x2="42.16" y2="112.91"/><line class="cls-2" x1="33.68" y1="121.03" x2="35.01" y2="127.34"/><path class="cls-1" d="M173.19,45.26V181.05a38.83,38.83,0,0,1-77.65,0V45.26Z"/><path class="cls-2" d="M164.19,145.84v35.21a29.85,29.85,0,0,1-29.82,29.82"/><path class="cls-4" d="M184.84,8.74V38a7.24,7.24,0,0,1-7.24,7.23H91.13A7.23,7.23,0,0,1,83.9,38V8.74A7.23,7.23,0,0,1,91.13,1.5H177.6A7.24,7.24,0,0,1,184.84,8.74Z"/><rect class="cls-2" x="95.54" y="67.15" width="29.65" height="104.47"/><line class="cls-2" x1="95.54" y1="84.91" x2="114.84" y2="84.91"/><line class="cls-2" x1="95.54" y1="153.85" x2="114.84" y2="153.85"/><line class="cls-2" x1="95.54" y1="119.38" x2="114.84" y2="119.38"/><line class="cls-2" x1="173.19" y1="9.27" x2="173.19" y2="36.79"/><line class="cls-2" x1="147.31" y1="9.27" x2="147.31" y2="36.79"/><line class="cls-2" x1="121.43" y1="9.27" x2="121.43" y2="36.79"/><line class="cls-2" x1="95.55" y1="9.27" x2="95.55" y2="36.79"/><path class="cls-3" d="M198.6,132.57h19.06a0,0,0,0,1,0,0v77.78a9.53,9.53,0,0,1-9.53,9.53h0a9.53,9.53,0,0,1-9.53-9.53V132.57A0,0,0,0,1,198.6,132.57Z"/><line class="cls-2" x1="208.13" y1="132.57" x2="208.13" y2="70.44"/><rect class="cls-1" x="198.72" y="23.38" width="18.82" height="47.06" rx="9.41"/></g></g></svg>