<svg xmlns="http://www.w3.org/2000/svg" viewBox="0 0 227.93 231.5"><defs><style>.cls-1{fill:#82baff;}.cls-1,.cls-2,.cls-3,.cls-4{stroke:#30302d;stroke-miterlimit:10;stroke-width:3px;}.cls-2{fill:#fff;}.cls-3{fill:#ffc3b8;}.cls-4{fill:none;}.cls-5{fill:#30302d;}</style></defs><g id="Layer_2" data-name="Layer 2"><g id="Layer_1-2" data-name="Layer 1"><path class="cls-1" d="M53.51,143.86,57.27,187c-2.6.6-5.19,1.1-7.8,1.52a118.34,118.34,0,0,1-11.83,1.25,108.19,108.19,0,0,1-11.39,0,109,109,0,0,1-11.78-1.18c-2.86-.42-5.71-1-8.56-1.62l2.7-27.6A24.61,24.61,0,0,1,2,145.64c-1.16-7.23-.05-16.67,2-23.71,2-6.84,4.89-11.62,9.29-17.21s10.9-9.88,18-10.25c7.46-.37,14.71,3.65,19.42,9.46s7.11,13.19,8.16,20.59"/><circle class="cls-2" cx="33.57" cy="77.56" r="16.9"/><path class="cls-1" d="M18.91,126.66c-6.12,9.16-5.81,15.51-5.1,30.92a2.85,2.85,0,0,1-4.76,2.22C5.16,156.26,2.83,151,2,145.65c-1.15-7.24-.06-16.68,2-23.72,2-6.84,4.9-11.62,9.3-17.21s10.89-9.88,18-10.24c7.47-.39,14.72,3.65,19.43,9.45,4.57,5.64,7,12.77,8.06,19.95a.54.54,0,0,0,.72.42c5.84-2.18,9.52-4.42,13.76-12.88,1.91-3.81,6.49-3.81,5.68,2.18C78.43,116.91,77.24,130.32,58,143a5.7,5.7,0,0,1-8-1.64l0,0-8.81-14.59"/><path class="cls-2" d="M26.25,189.77,12.65,230H4.88l9.59-41.41A109,109,0,0,0,26.25,189.77Z"/><path class="cls-2" d="M49.47,188.49,50.18,230H42.41l-4.77-40.26A118.34,118.34,0,0,0,49.47,188.49Z"/><path class="cls-3" d="M172.73,93.2,169.52,130c2.22.51,4.43.95,6.66,1.3a96,96,0,0,0,10.11,1.07,92.88,92.88,0,0,0,9.73,0,95.12,95.12,0,0,0,10.07-1c2.44-.36,4.88-.83,7.32-1.39l-2.32-23.58a21,21,0,0,0,5.68-11.73c1-6.18,0-14.25-1.68-20.26-1.67-5.85-4.18-9.93-7.94-14.71s-9.31-8.44-15.39-8.76c-6.38-.32-12.57,3.12-16.59,8.08s-6.08,11.27-7,17.6"/><circle class="cls-2" cx="189.77" cy="36.53" r="14.44"/><path class="cls-3" d="M202.29,78.49c5.24,7.84,5,13.26,4.37,26.42a2.43,2.43,0,0,0,4.06,1.91,20.77,20.77,0,0,0,6.05-12.1c1-6.18,0-14.25-1.68-20.27-1.68-5.84-4.18-9.92-7.94-14.71S197.84,51.3,191.76,51c-6.37-.32-12.57,3.12-16.59,8.08s-6,10.91-6.9,17.05a.45.45,0,0,1-.61.36c-5-1.86-8.14-3.78-11.76-11-1.63-3.26-5.54-3.26-4.85,1.87.38,2.82,1.4,14.29,17.89,25.14a4.88,4.88,0,0,0,6.83-1.4l0,0,7.52-12.46"/><path class="cls-2" d="M196,132.43,199,166.81h6.64l.48-35.39A95.12,95.12,0,0,1,196,132.43Z"/><path class="cls-2" d="M176.18,131.33l1.13,35.48H184l2.34-34.41A96,96,0,0,1,176.18,131.33Z"/><path class="cls-4" d="M142.36,128.34H100.09c-9.79,0-17.73,6.7-17.73,15s7.94,14.95,17.73,14.95h33.15c9.79,0,17.73,6.7,17.73,15s-7.94,14.95-17.73,14.95H91"/><polygon class="cls-5" points="140.61 122.36 150.97 128.34 140.61 134.32 140.61 122.36"/><polygon class="cls-5" points="92.72 182.18 82.36 188.16 92.72 194.15 92.72 182.18"/><path class="cls-5" d="M122.17,81.71h-6.45V69.25c0-1.52,0-2.9.09-4.16a13,13,0,0,1-1.48,1.51l-2.67,2.21-3.3-4.06,8.08-6.58h5.73Z"/><path class="cls-5" d="M113.53,112.15l-4.82-17h-.14c.22,2.89.34,5.13.34,6.73v10.23h-5.64V88.61h8.47l4.91,16.71h.13l4.81-16.71h8.49v23.54h-5.85V101.83c0-.54,0-1.14,0-1.79s.09-2.26.22-4.82h-.15l-4.75,16.93Z"/><path class="cls-5" d="M162.31,39.65a1.58,1.58,0,0,0-1-1.47,4.16,4.16,0,0,0-.12-.69,2.13,2.13,0,0,0,.92-1.76,2.16,2.16,0,0,0-2.16-2.15,2.06,2.06,0,0,0-1,.26,6.64,6.64,0,0,0-1.36-.86,1.43,1.43,0,0,0,0-.29,1.84,1.84,0,0,0-3.66-.31,6.84,6.84,0,0,0-1.63.41,1.58,1.58,0,0,0-3,.66,1.61,1.61,0,0,0,.46,1.12,6.55,6.55,0,0,0-1.07,1.66l-.2,0a1.57,1.57,0,0,0-.39,3.1,6.74,6.74,0,0,0,.46,2.11,2.23,2.23,0,0,0,1.52,3.87,2.2,2.2,0,0,0,1.43-.52,6.59,6.59,0,0,0,1.63.64,1.83,1.83,0,0,0,1.76,1.33,1.85,1.85,0,0,0,1.8-1.43,6.94,6.94,0,0,0,1.65-.78,1.58,1.58,0,0,0,2.15-2.3,5.54,5.54,0,0,0,.47-1A1.59,1.59,0,0,0,162.31,39.65Z"/><path class="cls-5" d="M190.41,7.24A1.29,1.29,0,0,0,189.58,6a3.45,3.45,0,0,0-.1-.56,1.78,1.78,0,0,0-1-3.23,1.72,1.72,0,0,0-.84.22,5.44,5.44,0,0,0-1.12-.71,1.79,1.79,0,0,0,0-.23,1.52,1.52,0,0,0-3-.26,5.61,5.61,0,0,0-1.34.34A1.28,1.28,0,0,0,181,.84a1.3,1.3,0,0,0-1.3,1.3,1.27,1.27,0,0,0,.38.92,5.66,5.66,0,0,0-.89,1.37l-.16,0A1.29,1.29,0,0,0,178.71,7a5.31,5.31,0,0,0,.38,1.74,1.79,1.79,0,0,0-.59,1.35,1.84,1.84,0,0,0,1.84,1.84,1.82,1.82,0,0,0,1.18-.43,5.11,5.11,0,0,0,1.33.52,1.51,1.51,0,0,0,2.93-.08,5.47,5.47,0,0,0,1.36-.64,1.32,1.32,0,0,0,.85.31,1.3,1.3,0,0,0,.93-2.2,5,5,0,0,0,.38-.85A1.29,1.29,0,0,0,190.41,7.24Z"/><path class="cls-5" d="M227.93,34.92a1.42,1.42,0,0,0-.9-1.32,4.23,4.23,0,0,0-.11-.62,1.93,1.93,0,0,0-1.11-3.51,1.9,1.9,0,0,0-.92.23,6.14,6.14,0,0,0-1.22-.77,2.28,2.28,0,0,0,0-.26,1.65,1.65,0,0,0-3.28-.27,5.89,5.89,0,0,0-1.46.36,1.42,1.42,0,0,0-2.7.6,1.44,1.44,0,0,0,.41,1,5.67,5.67,0,0,0-1,1.49l-.18,0a1.42,1.42,0,0,0-.35,2.79,6,6,0,0,0,.41,1.89,2,2,0,0,0,2.65,3,6.15,6.15,0,0,0,1.46.57,1.65,1.65,0,0,0,3.2-.09,6.48,6.48,0,0,0,1.48-.7,1.42,1.42,0,0,0,2.34-1.08,1.39,1.39,0,0,0-.41-1,6.4,6.4,0,0,0,.43-.92A1.41,1.41,0,0,0,227.93,34.92Z"/></g></g></svg>